<svg xmlns="http://www.w3.org/2000/svg" viewBox="0 0 750 500"><g id="freepik--Water--inject-18"><polygon points="743.6 494.72 4.54 495.95 4.54 283.1 744 283.1 743.6 494.72" style="fill:#e0e0e0"></polygon><path d="M645.74,417.67c0,.15-20.84.26-46.55.26s-46.56-.11-46.56-.26,20.84-.26,46.56-.26S645.74,417.53,645.74,417.67Z" style="fill:#fff"></path><path d="M677.23,421.51c0,.14-20.85.26-46.55.26s-46.56-.12-46.56-.26,20.84-.26,46.56-.26S677.23,421.36,677.23,421.51Z" style="fill:#fff"></path></g><g id="freepik--Shrubs--inject-18"><path d="M663.64,370.78s0,.14,0,.43,0,.71,0,1.25c0,1.1,0,2.72,0,4.81a168.51,168.51,0,0,0,1.26,17.64c.94,7.41,1.88,16.26,3,26.09s2,20.65,3.13,32c2.11,22.72-.56-.72,1.33,14.1.93,7.42,1.81,13.4,2.41,17.54.31,2.05.55,3.65.72,4.76.08.52.14.94.18,1.24a3.2,3.2,0,0,1,0,.42l-.09-.42c-.05-.29-.13-.7-.22-1.23l-.81-4.74c-.66-4.13-1.59-10.11-2.56-17.53-2-14.82.64,8.63-1.47-14.09-1.09-11.36-2-22.19-3.09-32s-2-18.68-2.85-26.1a159.83,159.83,0,0,1-1.12-17.68c0-2.09,0-3.71.08-4.81,0-.54,0-.95.05-1.26S663.64,370.78,663.64,370.78Z" style="fill:#455a64"></path><path d="M645.56,393.66a2.53,2.53,0,0,1,.22.47l.53,1.37c.47,1.2,1.16,2.92,2.08,5a155.51,155.51,0,0,0,8.21,15.88c3.52,6.05,6.92,11.39,9.33,15.29l2.85,4.63.75,1.27a2.31,2.31,0,0,1,.24.46s-.13-.13-.32-.41l-.83-1.22c-.73-1.13-1.74-2.67-3-4.55-2.48-3.86-5.93-9.18-9.46-15.23a139.72,139.72,0,0,1-8.11-16c-.88-2.12-1.53-3.87-1.94-5.08l-.45-1.41A1.9,1.9,0,0,1,645.56,393.66Z" style="fill:#455a64"></path><path d="M652,408.58c.35-.32,1.13-.17.23-3.18s-7.19-13-7.19-13,1.67,7.52,3,10.44C650.17,407.79,652,408.58,652,408.58Z" style="fill:#455a64"></path><path d="M655.39,415.77c.15-.42.23.22-.46-1.32-1.29-2.92-13.41-11.11-13.41-11.11a100.11,100.11,0,0,0,7.58,8.6C653.36,415.72,655.39,415.77,655.39,415.77Z" style="fill:#455a64"></path><path d="M660,422.91c.07-.36.21.15-.53-1.05-1.39-2.27-12.19-7.88-12.19-7.88a88.17,88.17,0,0,0,7.16,6.36C658.39,423.05,660,422.91,660,422.91Z" style="fill:#455a64"></path><path d="M664,429c0-.3.19.1-.54-.79-1.37-1.69-10.72-5.06-10.72-5.06a70.94,70.94,0,0,0,6.49,4.37C662.69,429.31,664,429,664,429Z" style="fill:#455a64"></path><path d="M661.85,425.59c.29-.11,0,.21.5-.82,1-2,.16-11.82.16-11.82a69.22,69.22,0,0,0-1.29,7.7C661,424.51,661.85,425.59,661.85,425.59Z" style="fill:#455a64"></path><path d="M664.77,391c-.3-.27-.09.24-.21-1.16-.22-2.65,5.86-13,5.86-13a74.68,74.68,0,0,1-2.32,9.11C666.35,390.24,664.77,391,664.77,391Z" style="fill:#455a64"></path><path d="M663.88,384.92c-.38.12.16.2-1.1-.41-2.4-1.16-8.24-11.65-8.24-11.65a75.36,75.36,0,0,1,6.68,6.62C664.05,383.18,663.88,384.92,663.88,384.92Z" style="fill:#455a64"></path><path d="M663.7,378.81c-.39-.14,0,.26-.62-1-1.16-2.39.78-14.24.78-14.24a74.12,74.12,0,0,1,1.12,9.33C664.9,377.55,663.7,378.81,663.7,378.81Z" style="fill:#455a64"></path><path d="M690.93,400a2.74,2.74,0,0,0-.15.63c-.09.47-.2,1.08-.34,1.81-.29,1.58-.72,3.85-1.36,6.64a198,198,0,0,1-6.32,21.44c-2.89,8.25-5.8,15.62-7.84,21l-2.4,6.35-.62,1.73a2.37,2.37,0,0,0-.18.63,3.06,3.06,0,0,0,.29-.58l.72-1.7,2.57-6.28c2.14-5.32,5.12-12.67,8-20.93a171.71,171.71,0,0,0,6.18-21.55c.58-2.81,1-5.1,1.18-6.69.09-.75.16-1.35.22-1.84A2.38,2.38,0,0,0,690.93,400Z" style="fill:#455a64"></path><path d="M686.53,419.81c-.5-.31-1.43.06-1-3.85s5.76-17.65,5.76-17.65-.27,9.63-1.15,13.52C688.61,418.4,686.53,419.81,686.53,419.81Z" style="fill:#455a64"></path><path d="M684.1,429.44c-.3-.49-.24.31.24-1.74.9-3.88,13.84-16.8,13.84-16.8s-4.7,9-7.27,12.35C686.57,428.89,684.1,429.44,684.1,429.44Z" style="fill:#455a64"></path><path d="M680.08,439.29c-.18-.42-.23.24.39-1.41,1.18-3.12,13.11-12.56,13.11-12.56a108.78,108.78,0,0,1-7.29,9.51C682.14,439.08,680.08,439.29,680.08,439.29Z" style="fill:#455a64"></path><path d="M676.65,447.73c-.1-.36-.21.17.47-1.1,1.29-2.39,12-8.74,12-8.74a89.23,89.23,0,0,1-6.93,6.9C678.34,447.78,676.65,447.73,676.65,447.73Z" style="fill:#455a64"></path><path d="M678.48,443c-.37-.07.07.26-.8-.89-1.65-2.17-3-14.47-3-14.47a87.41,87.41,0,0,1,3.41,9.15C679.23,441.5,678.48,443,678.48,443Z" style="fill:#455a64"></path><path d="M740.42,429.65H726.09l-12.2,62.09V432.3l-14.33,2.12v52l-15.39-48.29-24.41,3.71L664,487.49l-13.8-43s-10.61,0-10.08,1.59,4.25,37.15,4.25,37.15l-16.46-34.5-10.61,6.9,9,32.9-20.16-27.86-5.84,5L612,488.55,596.6,477.94l-9,4.25v12.28h156V429.65" style="fill:#455a64"></path><path d="M200.93,478.42l-16,11,12.13-23.72L191,460.49l-21,29,9.37-34.2-11-7.17-17.1,35.85s3.86-36.95,4.41-38.61-10.48-1.65-10.48-1.65l-14.34,44.67,4.42-47.43-25.38-3.86-16,50.19V433.19L79,431l-7.24,57.24-5.44-60H43.57V464.6L29.9,428.94,4.54,431v65l205.77-.35L221,494.38Z" style="fill:#455a64"></path></g><g id="freepik--Rock--inject-18"><path d="M211.79,424c0,.14-34,.26-75.93.26s-75.94-.12-75.94-.26,34-.26,75.94-.26S211.79,423.87,211.79,424Z" style="fill:#fff"></path><path d="M85,423.8l.94.21c3.27.73,13.23,2.84,14.29,3,1.22.16,34.44,1.58,34.44,1.58l-3.55,2.83L154,438.09a20,20,0,0,0,8,.67l61.52-7.16-38.74-1.28,2.1-3.33,3.57-3.19" style="fill-rule:evenodd;opacity:0.2"></path><path d="M85,423.8c.24-.73,16.14-28.91,16.14-28.91l52.5-24.32,18.79,6,18.06,34.92s1,11.8,0,12.29S85,423.8,85,423.8Z" style="fill:#ae7461"></path><path d="M85,423.8a4.92,4.92,0,0,1,.6,0h1.74l6.73,0H119l37.4,0,22.32,0,5.88,0,3,0,1.5,0,1.29-.05a1.83,1.83,0,0,0,.17-.59,5.82,5.82,0,0,0,.07-.73c0-.5.05-1,.06-1.5,0-1,0-2-.06-3.05-.08-2-.21-4.1-.37-6.17l0,.1c-2.37-4.56-4.86-9.38-7.39-14.27q-5.46-10.58-10.68-20.65l.15.12-18.78-6h.18l-52.54,24.26.08-.07L85,423.8s.07-.17.24-.52l.78-1.49c.71-1.32,1.76-3.23,3.11-5.71l11.86-21.27,0-.05,0,0,52.47-24.4.09,0,.09,0,18.79,6,.1,0,.05.09c3.47,6.7,7,13.61,10.69,20.65,2.52,4.89,5,9.71,7.37,14.27l0,.05v.05c.16,2.08.29,4.14.37,6.19,0,1,.06,2.05.06,3.07,0,.51,0,1-.06,1.53,0,.26,0,.52-.08.78a1.85,1.85,0,0,1-.28.84.79.79,0,0,1-.15.12l-.12,0-.24,0c-.17,0-.27,0-.4,0l-.76,0-1.5,0-3,0-5.88,0H156.35L119,424.1,94,423.93l-6.73-.07-1.75,0C85.15,423.82,84.94,423.8,85,423.8Z" style="fill:#6f4439"></path><polygon points="101.09 394.89 153.59 370.57 109.32 397.29 105.04 423.88 84.95 423.8 101.09 394.89" style="fill:#6f4439"></polygon><polygon points="176.17 383.91 163.89 386.35 135.12 382.11 132.74 380.01 129.19 381.58 133.14 382.91 164.18 390.13 178.38 388.19 176.17 383.91" style="opacity:0.2"></polygon><polygon points="190.44 411.51 163.31 404.81 108.14 410.11 96.02 403.97 93.86 407.74 106.75 413.28 163.31 406.96 190.44 416.9 190.44 411.51" style="opacity:0.2"></polygon><path d="M131.07,431.4c.72-.26,3.67-10,12.41-18.2s20.64-15.47,20.64-15.47l11.24,8.21,9.81,25.41Z" style="fill:#ae7461"></path><path d="M131.07,431.4l54.1-.3-.24.34c-2-5.17-4.12-10.68-6.31-16.35l-3.5-9.06.09.11L164,397.93h.28a154.45,154.45,0,0,0-15.74,11.14,78.36,78.36,0,0,0-6.09,5.42,46.06,46.06,0,0,0-4.52,5.31,59.65,59.65,0,0,0-5.1,8.49c-1,2.07-1.6,3.21-1.73,3.1a17.57,17.57,0,0,0,1.58-3.17,57,57,0,0,1,5-8.6,45.2,45.2,0,0,1,4.51-5.39,80.49,80.49,0,0,1,6.09-5.49A152.22,152.22,0,0,1,164,397.52l.14-.09.13.1,11.26,8.2.06,0,0,.07,3.49,9.06c2.19,5.67,4.31,11.19,6.3,16.36l.13.34h-.36c-15.64,0-29.26-.08-38.86-.13Z" style="fill:#6f4439"></path><path d="M164.12,397.73l-9,15.55,2.48,3.08-6,1.44-6.32,13.31-14.23.29s4-7.52,8.17-13.6C143.57,411.5,164.12,397.73,164.12,397.73Z" style="fill:#6f4439"></path><polygon points="179.59 416.9 154.56 422.33 150.1 421 141.63 415.05 139.24 417.8 149.12 423.07 153.59 426.99 181.91 422.89 179.59 416.9" style="opacity:0.2"></polygon><path d="M248.2,431.4c0,.14-34.55.26-77.15.26s-77.15-.12-77.15-.26,34.53-.26,77.15-.26S248.2,431.26,248.2,431.4Z" style="fill:#fff"></path></g></svg>