<svg xmlns="http://www.w3.org/2000/svg" viewBox="0 0 750 500"><g id="freepik--Mountains--inject-18"><path d="M12.08,61.93,42.56,46.44,62,19.47H89.51L142,47.94l11,.5,28.47,10.49,5,73.93,19.48,7,7.49,54.95s30.47,20.48,31,22,14,55,14,55L4.54,275.16Z" style="fill:#ae7461"></path><polygon points="152.96 48.44 153.87 138.81 141.86 162.83 141.97 47.94 152.96 48.44" style="fill:#6f4439"></polygon><polygon points="62.04 19.47 53.94 170.07 42.56 46.44 62.04 19.47" style="fill:#6f4439"></polygon><polygon points="62.04 19.47 90.11 21.95 141.97 47.94 89.51 19.47 62.04 19.47" style="fill:#fff"></polygon><polygon points="152.96 48.44 168.68 54.23 170.07 60.1 170.82 55.02 181.43 58.93 164.68 51.23 152.96 48.44" style="fill:#fff"></polygon><polygon points="186.43 132.86 205 140.38 213.4 194.81 244.37 216.79 215.4 194.17 205.91 139.86 186.43 132.86" style="fill:#fff"></polygon><path d="M7.28,156.53a408.19,408.19,0,0,0,48.13-8.31c24-5.73,48.5-14.61,48.5-14.61l38,3.86,12,1.35,31.38-24,.66,9.79-31.15,18.14-12.86-.46-39.38-5.23-47.26,15.5L7.28,162.83Z" style="fill-rule:evenodd;opacity:0.2"></path><path d="M7.28,207.53c1.43.47,95.2-11.49,95.2-11.49l12,9.09L210.72,180l2.68,14.78L108.22,210.4l-8.61-5.27L5.36,221.88v-12" style="fill-rule:evenodd;opacity:0.2"></path><path d="M9.8,117S28.5,103.86,49,96.2l8.61,2.93c19-7.1,38.12-14.23,45.22-16.91s23.36,1.07,39.62-.42L154,75.07c16.54-1.28,28.41-1.8,28.41-1.8l.4,6s-12.18.42-28.31,1.29c0,0-8,6.2-12,6.46l-37.19-1.78c-4.54,1.67-26.37,11.59-48.07,21.55l-7.4-3C28.73,113.52,9.3,128.93,9.3,128.93Z" style="fill-rule:evenodd;opacity:0.1"></path><path d="M5,275.08a1.31,1.31,0,0,1,0-.3l.19-.89c.19-.81.45-1.94.79-3.38.71-3,1.73-7.2,3-12.42l10-40.92c.95-3.84,1.88-7.6,2.78-11.22v-.06l.05,0,22.82-25.6,6.75-7.5,1.83-2,.49-.51.17-.16s0,.07-.14.19l-.45.54-1.76,2.06L45,180.46,22.26,206.18l0-.1c-.89,3.62-1.82,7.37-2.77,11.21-4,16-7.58,30.4-10.19,40.89C8,263.38,7,267.6,6.2,270.56c-.38,1.43-.67,2.55-.88,3.36-.1.36-.18.64-.25.87A1,1,0,0,1,5,275.08Z" style="fill:#6f4439"></path><path d="M28.52,275.23l.32-.13,1-.36,3.79-1.36,14.2-5,49-17.09-.15.15c3-8.05,6.33-16.73,9.74-25.72,2.7-7.11,5.33-14,7.84-20.67l0,0,0,0,16.3-18.59,0,.05,16.81-34.5,4.76-9.69,1.28-2.55.33-.65a1,1,0,0,1,.13-.22l-.09.23-.31.67c-.28.6-.68,1.47-1.21,2.58-1.08,2.28-2.65,5.57-4.65,9.75l-16.64,34.58v0l0,0L114.63,205.3l0-.08c-2.51,6.63-5.13,13.56-7.83,20.68-3.41,9-6.7,17.66-9.75,25.71l0,.11-.11,0-49,16.91-14.25,4.87-3.81,1.28-1,.32Z" style="fill:#6f4439"></path><path d="M114,163.27c-.14,0-5.79-31.32-12.62-70S89.11,23.2,89.25,23.17s5.79,31.31,12.62,70S114.12,163.24,114,163.27Z" style="fill:#6f4439"></path><path d="M501,276.58c1.23-2.32,12.77-71.07,12.77-71.07l15.72-9.43,9.6-46.54,12.2-7.89,11.1-35.79,16.54-2.72,23.88,7.7,12.71,17.79L616.76,152l8.88-51.45,5.6-4.82,6.41-39.15,21.69-7.51L702.52,71.5l38.71,121L744,275.34Z" style="fill:#ae7461"></path><polygon points="511.95 276.58 528.28 214.88 513.72 205.51 479.8 276.58 511.95 276.58" style="fill:#6f4439"></polygon><polygon points="529.43 196.08 540.83 200.83 542.93 218.41 548.79 153.11 539.04 149.54 529.43 196.08" style="fill:#6f4439"></polygon><polygon points="551.24 141.65 559.25 145.16 568.04 108.74 562.34 105.86 551.24 141.65" style="fill:#6f4439"></polygon><polygon points="625.64 100.56 616.93 151.25 619.54 183.98 622.48 229.5 634.62 108.28 625.64 100.56" style="fill:#6f4439"></polygon><polygon points="631.24 95.74 642.14 102.74 644.23 59.34 637.65 56.59 631.24 95.74" style="fill:#6f4439"></polygon><polygon points="642.65 93.57 656.61 110.36 642.14 102.74 642.65 93.57" style="fill:#6f4439"></polygon><path d="M507.1,219.39c.64,0,4.12,13.62,17,11.29,21.93-4,96.9-23,96.9-23l11,3.17,10.82,1.22L733,166.69l2.41,7.93-91.76,41L632,215.24l-12.29-4.41-97,24.94-20.48-6.27Z" style="fill-rule:evenodd;opacity:0.1"></path><path d="M515.07,264.78c1.46.49,101-17,101-17L628.2,257l114.19-29.77.53,15.83-121,19.29L613.12,257,512.4,274.87l-27.94-8" style="fill-rule:evenodd;opacity:0.1"></path><path d="M546.75,175.77A158.63,158.63,0,0,1,580.24,158L616.65,150c-1.09.24,14.6-8.1,14.6-8.1S650,146.36,664.72,145l10.4-6.09c15-1.15,49.91,3,49.91,3l1.94,6.06s-36.81-4.82-51.39-4c0,0-7.22,5.61-10.86,5.84l-33.63-1.61s-14.16,10.26-13.93,9.28L581,164.91c-19.07,8.78-35.36,23.79-35.36,23.79l-12.44-10.64,1.53-7.37Z" style="fill-rule:evenodd;opacity:0.2"></path><path d="M634.21,77.62c0-.14,8-2.91,8-2.91l65.77,14-1.45-4.53L644.23,70.08,635,72.94Z" style="fill-rule:evenodd;opacity:0.1"></path><path d="M596.77,221.72a1.77,1.77,0,0,1-.07-.33c0-.25-.08-.57-.14-1l-.45-3.66c-.37-3.21-.88-7.72-1.51-13.13l0,.09c-3.48-5.11-7.61-11.27-12-17.93-6-9.2-11.32-17.61-15.1-23.74-1.89-3.07-3.4-5.56-4.43-7.28l-1.17-2a3.62,3.62,0,0,1-.38-.72,5.92,5.92,0,0,1,.46.66l1.26,1.95,4.57,7.19c3.86,6.08,9.21,14.46,15.22,23.65,4.35,6.67,8.46,12.84,11.89,18l0,0v.05c.54,5.42,1,9.94,1.32,13.16.14,1.54.25,2.77.34,3.67l.07,1A1.37,1.37,0,0,1,596.77,221.72Z" style="fill:#6f4439"></path></g><g id="freepik--Trees--inject-18"><polyline points="162.92 209.71 156.88 193.01 152.12 206.4 148.37 196.72 148.34 196.17 142.3 179.48 135.44 198.77 135.21 198.65 131.91 181.65 130.04 195.91 122.71 192.03 117.93 167.46 115.22 188.06 114.44 187.65 112.85 181.4 112.8 180.5 106.1 152.58 100.72 180.39 85.01 172.07 80.23 147.5 77.3 169.88 70.61 141.98 65 171.01 63.79 171.09 60.94 159.91 60.89 159 54.19 131.08 46.25 172.19 42.63 172.41 37.9 148.09 34.77 171.95 28.68 146.57 23.45 173.62 16.92 174.03 14.17 163.24 14.1 161.95 4.54 122.13 4.54 280.75 275.94 285.99 205.91 236.07 205.25 235.72 204.09 232.73 201.41 233.69 201.09 233.52 204.06 232.19 198.02 215.49 193.11 229.29 190.15 227.73 184.67 206.22 178.66 209.61 184.62 205.32 177.92 177.4 170.23 217.19 164.45 214.12 162.95 210.25" style="fill:#455a64;fill-rule:evenodd"></polyline><polyline points="162.92 209.71 156.88 193.01 152.12 206.4 148.37 196.72 148.34 196.17 142.3 179.48 135.44 198.77 135.21 198.65 131.91 181.65 130.04 195.91 122.71 192.03 117.93 167.46 115.22 188.06 114.44 187.65 112.85 181.4 112.8 180.5 106.1 152.58 100.72 180.39 85.01 172.07 80.23 147.5 77.3 169.88 70.61 141.98 65 171.01 63.79 171.09 60.94 159.91 60.89 159 54.19 131.08 46.25 172.19 42.63 172.41 37.9 148.09 34.77 171.95 28.68 146.57 23.45 173.62 16.92 174.03 14.17 163.24 14.1 161.95 4.54 122.13 4.57 280.64 275.94 285.99 205.91 236.07 205.25 235.72 204.09 232.73 201.41 233.69 201.09 233.52 204.06 232.19 198.02 215.49 193.11 229.29 190.15 227.73 184.67 206.22 178.66 209.61 184.62 205.32 177.92 177.4 170.23 217.19 164.45 214.12 162.95 210.25" style="fill-rule:evenodd;opacity:0.30000000000000004"></polyline><polyline points="600.33 215.65 605.81 200.52 610.12 212.65 613.52 203.87 613.54 203.38 619.02 188.25 625.23 205.73 625.44 205.62 628.44 190.22 630.13 203.14 636.78 199.62 641.11 177.36 643.56 196.03 644.27 195.65 645.72 189.99 645.76 189.18 651.83 163.87 656.7 189.07 670.94 181.54 675.27 159.27 677.93 179.55 684 154.27 689.08 180.57 690.17 180.64 692.76 170.51 692.8 169.69 698.88 144.39 706.07 181.64 709.35 181.85 713.64 159.8 716.47 181.43 721.99 158.43 726.73 182.94 732.65 183.31 735.14 173.53 735.21 172.37 743.87 136.27 743.94 280.02 497.91 284.78 561.38 239.54 561.98 239.22 563.02 236.51 565.45 237.38 565.74 237.23 563.05 236.01 568.53 220.88 572.97 233.4 575.65 231.98 580.63 212.48 586.07 215.56 580.67 211.67 586.74 186.36 593.71 222.42 598.95 219.65 600.3 216.14" style="fill:#455a64;fill-rule:evenodd"></polyline><polyline points="600.33 215.65 605.81 200.52 610.12 212.65 613.52 203.87 613.54 203.38 619.02 188.25 625.23 205.73 625.44 205.62 628.44 190.22 630.13 203.14 636.78 199.62 641.11 177.36 643.56 196.03 644.27 195.65 645.72 189.99 645.76 189.18 651.83 163.87 656.7 189.07 670.94 181.54 675.27 159.27 677.93 179.55 684 154.27 689.08 180.57 690.17 180.64 692.76 170.51 692.8 169.69 698.88 144.39 706.07 181.64 709.35 181.85 713.64 159.8 716.47 181.43 721.99 158.43 726.73 182.94 732.65 183.31 735.14 173.53 735.21 172.37 743.87 136.27 743.94 280.02 497.91 284.78 561.38 239.54 561.98 239.22 563.02 236.51 565.45 237.38 565.74 237.23 563.05 236.01 568.53 220.88 572.97 233.4 575.65 231.98 580.63 212.48 586.07 215.56 580.67 211.67 586.74 186.36 593.71 222.42 598.95 219.65 600.3 216.14" style="fill-rule:evenodd;opacity:0.30000000000000004"></polyline><polygon points="614.82 248.71 609.66 225.35 605.3 240.89 602.78 233 588.07 272.24 614.82 271.02 614.82 248.71" style="fill:#263238;fill-rule:evenodd"></polygon><polygon points="683.23 266.9 677.86 255.86 670.64 252.18 676.93 253.4 668.8 233.43 664.94 231.82 668.29 231.82 657.39 203.96 650.09 233.43 657.81 227.3 658.06 230.71 650.09 235.43 650.09 236.55 658.48 231.82 649.5 238.86 642.44 269.41 683.23 266.9" style="fill:#263238;fill-rule:evenodd"></polygon><polygon points="488.52 280.81 486.37 276.39 483.48 274.92 486 275.41 482.74 267.42 481.2 266.77 482.54 266.77 478.18 255.63 475.26 267.42 478.35 264.96 478.45 266.33 475.26 268.22 475.26 268.67 478.62 266.77 475.03 269.59 472.2 281.81 488.52 280.81" style="fill:#263238;fill-rule:evenodd"></polygon><polygon points="640.64 269.5 634.24 255.1 625.01 250.6 624.79 248.94 633.06 252.62 632.73 250.69 625.01 246.83 632.14 248.67 620.15 216.03 616.58 231.82 621.07 230.8 616.62 232.18 615.95 236.69 620.65 232.73 620.73 233.69 615.89 237.31 609.73 271.23 640.64 269.5" style="fill:#263238;fill-rule:evenodd"></polygon><polygon points="714.72 260.75 708.31 246.34 699.09 241.84 698.86 240.18 707.14 243.86 706.8 241.93 699.09 238.08 706.22 239.92 694.22 207.28 690.66 223.07 695.14 222.04 690.7 223.43 690.02 227.93 694.73 223.97 694.81 224.94 689.97 228.55 683.81 262.47 714.72 260.75" style="fill:#263238;fill-rule:evenodd"></polygon><polygon points="583.95 271.23 574.8 238.51 571.46 254.87 575.45 257.13 571.46 255.39 567.85 271.8 583.95 271.23" style="fill:#263238;fill-rule:evenodd"></polygon><polygon points="743.92 243.63 736.31 214.73 732.97 231.09 736.5 228.26 732.97 231.61 729.36 248.02 743.92 243.63" style="fill:#263238;fill-rule:evenodd"></polygon><polygon points="568.04 270.17 561.89 267.69 542.77 272.24 528.3 272.24 520.59 275.56 567.85 271.8 568.04 270.17" style="fill:#263238;fill-rule:evenodd"></polygon><path d="M702.8,251.3h-1.12L690,255.5l-58,3.74-6.1,2.55H620l-11.24,5.71c-71.25,7.45-156.13,14-236.88,14.46-148.94.81-306.51-41.4-367.32-60.84v74.14l739.38-10.4V240.18Z" style="fill:#263238;fill-rule:evenodd"></path><polygon points="163.97 258.32 167.8 234.69 173.03 249.93 175.1 241.9 191.99 280.17 165.22 280.6 163.97 258.32" style="fill:#263238;fill-rule:evenodd"></polygon><polygon points="129.92 250.55 120.56 244.07 129.2 248.28 129.14 247.16 129.03 245.16 120.08 216.19 110.76 244.67 114.11 244.47 110.35 246.31 103.35 266.75 109.56 265.13 102.57 269.25 97.83 280.6 138.69 280.61 129.92 250.55" style="fill:#263238;fill-rule:evenodd"></polygon><polygon points="291.85 282.62 293.75 278.08 296.55 276.44 294.06 277.08 296.86 268.9 298.37 268.17 297.03 268.25 300.76 256.85 304.33 268.44 301.11 266.18 301.09 267.55 304.38 269.24 304.4 269.69 300.95 268.01 304.69 270.6 308.2 282.63 291.85 282.62" style="fill:#263238;fill-rule:evenodd"></polygon><polygon points="140.49 280.59 146.07 265.82 155.03 260.76 155.16 259.09 147.1 263.27 147.33 261.32 154.81 257 147.8 259.28 157.94 225.96 162.38 241.5 157.85 240.76 162.37 241.87 163.29 246.32 158.38 242.66 158.35 243.62 163.39 246.94 171.44 280.42 140.49 280.59" style="fill:#263238;fill-rule:evenodd"></polygon><polygon points="311.7 287.85 316.49 275.18 324.17 270.84 324.28 269.4 317.37 272.99 317.56 271.32 323.99 267.62 317.97 269.57 326.67 240.99 330.48 254.32 326.59 253.68 330.46 254.63 331.26 258.45 327.04 255.31 327.01 256.14 331.34 258.98 338.24 287.7 311.7 287.85" style="fill:#263238;fill-rule:evenodd"></polygon><polygon points="453.98 256.11 453.9 255.57 453.1 251.74 453.12 251.42 449.29 238.02 440.54 266.75 446.59 264.79 440.13 268.51 439.94 270.19 439.05 272.39 434.24 285.13 460.92 284.98 453.98 256.11" style="fill:#263238;fill-rule:evenodd"></polygon><polygon points="440.06 268.48 440 268.15 439.37 265.82 439.38 265.63 436.36 257.49 429.46 274.94 434.23 273.75 429.14 276.02 428.98 277.04 428.28 278.37 424.48 286.11 445.54 286.02 440.06 268.48" style="fill:#263238;fill-rule:evenodd"></polygon><polygon points="88.95 225.03 88.85 224.41 87.93 219.96 83.41 218.85 87.94 219.6 83.5 204.06 73.36 237.37 80.38 235.1 72.89 239.42 72.66 241.37 80.72 237.19 80.59 238.86 71.63 243.92 66.05 258.69 97 258.51 88.95 225.03" style="fill:#263238;fill-rule:evenodd"></polygon><polygon points="196.04 282.29 203.34 249.08 207.59 265.2 203.74 267.71 207.62 265.72 212.15 281.88 196.04 282.29" style="fill:#263238;fill-rule:evenodd"></polygon><polygon points="18.43 243.39 24.87 194.83 29.55 218.62 25.76 222.19 29.6 219.39 34.56 243.25 18.43 243.39" style="fill:#263238;fill-rule:evenodd"></polygon><polygon points="35.05 274.25 42.36 241.03 46.6 257.16 42.92 254.55 46.63 257.68 51.16 273.84 35.05 274.25" style="fill:#263238;fill-rule:evenodd"></polygon><polygon points="214.43 280.78 220.42 277.93 239.77 281.3 254.22 280.41 262.1 283.26 214.71 282.4 214.43 280.78" style="fill:#263238;fill-rule:evenodd"></polygon><path d="M188.19,332.54l131.28-.87c4.65,0,10.6.89,11.57,5.49a6.39,6.39,0,0,1-2.62,6.28c-3,2.33-6.88,2.43-10.56,2.5l-55.35,1,1,.48c5.53,2.72,3.73,11.57-2.42,11.21-56.74-3.35-89-11.3-143.15-11.54,2.38,2.93-8.73,5.57-5.12,6.66,3.88,1.16,8,5.25,5.28,8.83a5.79,5.79,0,0,1-5.18,2.17l-44.11-4c3-.54,5.66,2.9,5.1,5.9s-7.4,5-10.37,5.68-10.57-.6-13.62-.85c-39.73-3.22-41.21-4.26-44.39-14.73l7.68-22.87Z" style="fill:#fff"></path><polygon points="296 340.6 290.91 334.18 274.74 330.41 263.01 313.14 233.78 308.5 123.97 297.2 119.1 291.67 4.54 278.43 4.54 345.7 296 340.6" style="fill:#ae7461"></polygon><path d="M212.47,342.24a100.89,100.89,0,0,1-4.89-8.86,96.54,96.54,0,0,1-4.44-9.09,98.19,98.19,0,0,1,4.9,8.85A98.63,98.63,0,0,1,212.47,342.24Z" style="fill:#6f4439"></path><path d="M102.5,356.76c-.23-.66-14.84-26.57-14.84-26.57L39.4,307.83l-17.27,5.54L4.54,345.7v11.16Z" style="fill:#ae7461"></path><path d="M102.5,356.76H102l-1.4,0-5.48,0-20.48.1-70.13.19H4.29V345.64l0-.06c2.24-4.14,4.62-8.5,7-12.94l10.55-19.4.05-.09.1,0,17.27-5.52.09,0,.09,0L87.73,330l0,0,0,.05c4.65,8.34,8.35,15,10.89,19.55l2.87,5.25.71,1.37c.16.33.22.48.22.48-.64-1.12-5.68-10-15-26.48l.08.07-48.3-22.3.18,0-17.26,5.54.14-.12-10.54,19.4-7,12.94,0-.13v11.16l-.26-.26,69.92.06,20.56,0,5.53,0,1.44,0Z" style="fill:#6f4439"></path><path d="M290.31,334s-3.32,2.14-3.89,2-35.54,2.12-35.54,2.12l-32-2.06s11-3,11.81-2.89,30.1,0,31.24,0,12.81-2.79,12.81-2.79Z" style="fill:#455a64"></path><path d="M263.35,313.14,262,314.8l-13,1.28S223.76,312,223.33,312s-20,2.12-20.53,2-24.63-2.47-41.62-3.75-76.31,4.25-76.74,4.25-22.37-6.69-22.37-6.69L4.53,302.16s-.16-13.56,0-13.92c0,0,81.32,14.67,88.11,13.82s31.66-4.86,31.66-4.86l100.12,9Z" style="fill:#455a64"></path><polygon points="261.64 314.8 261.93 333.2 243.31 333.26 248.62 316.08 261.64 314.8" style="fill:#6f4439"></polygon><path d="M177.46,318.56c.54.27,21.24,3,21.24,3l4.44,2.51h-36l-22.44-5.47S176.93,318.29,177.46,318.56Z" style="fill:#455a64"></path><polygon points="45.84 217.03 51.23 245.37 45.84 246.73 51.23 248.47 56.62 276.04 49.88 277.4 56.62 279.73 60.21 297.79 27.89 297.79 37.54 257.4 42.7 256.05 38.21 254.88 45.84 217.03" style="fill:#455a64"></polygon><polygon points="155.09 254.81 158.24 271.39 155.09 272.19 158.24 273.21 161.39 289.33 157.46 290.13 161.39 291.49 163.49 302.05 144.59 302.05 150.24 278.43 153.25 277.64 150.63 276.96 155.09 254.81" style="fill:#455a64"></polygon><polyline points="125.56 302.05 132.65 272.41 136.44 271.41 133.14 270.55 138.74 242.76 142.69 263.57 138.74 264.57 142.69 265.85 146.65 286.09 141.71 287.08 146.65 288.8 149.28 302.05" style="fill:#455a64"></polyline><path d="M149.29,302.05a1,1,0,0,1-.07-.22l-.15-.67c-.14-.61-.32-1.47-.56-2.58l-2-9.76.1.12-4.95-1.69L141,287l.64-.13,4.94-1-.15.22c-1.16-5.83-2.51-12.7-4-20.22l.16.18-4-1.28-.81-.26.83-.21,3.95-1-.18.29c-1-5.38-2.12-11.12-3.25-17-.24-1.26-.48-2.52-.71-3.77H139c-2,10-3.94,19.4-5.63,27.78l-.17-.27,3.29.86.83.22-.83.22-3.79,1,.15-.15L127.62,294l-1.49,6-.41,1.57a3.19,3.19,0,0,1-.16.53,3.26,3.26,0,0,1,.1-.55c.08-.38.2-.91.34-1.58.33-1.41.79-3.44,1.38-6,1.22-5.21,3-12.62,5.06-21.56l0-.13.12,0,3.79-1v.44l-3.3-.85-.21-.06,0-.21c1.68-8.39,3.57-17.8,5.58-27.8l.26-1.3.25,1.31c.23,1.24.47,2.5.71,3.77,1.13,5.91,2.21,11.65,3.23,17l.05.24-.23.06-4,1,0-.48,4,1.29.14.05,0,.13c1.46,7.54,2.78,14.41,3.91,20.25l0,.19-.19,0-4.95,1,0-.34,4.94,1.73.08,0,0,.08,1.87,9.79c.21,1.11.37,2,.48,2.6,0,.27.08.49.11.67Z" style="fill:#263238"></path><polygon points="98.96 234.87 103.83 260.52 98.96 261.75 103.83 263.33 108.71 288.28 102.62 289.51 108.71 291.62 111.96 307.96 82.71 307.96 91.44 271.41 96.12 270.18 92.05 269.13 98.96 234.87" style="fill:#455a64"></polygon><path d="M171.25,353.87l10-1.62-35.75-36.17-8-4.1s-5.06-.33-4.51,0S171.25,353.87,171.25,353.87Z" style="fill:#6f4439"></path><path d="M117.93,351.12c.11-.33,1-20.89,1-20.89L133,312l38.26,41.89Z" style="fill:#ae7461"></path><path d="M117.93,351.12h.28l.78,0,3,.12,11.1.51,38.19,1.84-.19.41-16-17.45-22.29-24.44.36,0-14.12,18.22,0-.1c-.32,6.48-.58,11.7-.77,15.32-.1,1.78-.19,3.16-.25,4.13,0,.45-.07.8-.09,1.07a2.15,2.15,0,0,1-.06.36c0-1.34.32-8.19.81-20.9v-.05l0-.05,14-18.28.17-.22.19.2c6.73,7.37,14.32,15.66,22.33,24.41l15.93,17.47.41.45-.6,0L132.86,352l-11-.64-2.92-.17-.75-.06Z" style="fill:#6f4439"></path><polygon points="260.13 350.12 228.47 300.08 220.94 300.08 210.98 309.16 201.24 350.12 260.13 350.12" style="fill:#ae7461"></polygon><path d="M260.13,350.12h-1.08l-3.21,0-12.13.06-42.47.14h-.31l.07-.3c2.26-9.52,4.74-19.95,7.32-30.85.82-3.42,1.62-6.8,2.41-10.11l0-.08.06,0,10-9.07.08-.07h7.76l.07.11,22.71,36.16,6.47,10.34,1.71,2.74.43.7a1.3,1.3,0,0,1,.13.23l-.17-.25-.47-.72-1.77-2.77c-1.56-2.42-3.8-5.93-6.62-10.34l-22.84-35.83.21.12h-7.53l.17-.06-10,9.08.07-.13c-.78,3.31-1.59,6.69-2.4,10.11-2.6,10.9-5.08,21.33-7.35,30.84l-.24-.3,42.26.14,12.21.07,3.27,0h1.15Z" style="fill:#6f4439"></path><path d="M220.94,300.08s28.36,50,28.93,50h10.26l-31.66-50Z" style="fill:#6f4439"></path><polygon points="207.19 325.1 215.17 327.63 232.99 321.24 242.65 322.49 245.65 327.23 233.56 323.06 215.86 328.43 214.6 328.43 206.65 327.38 207.19 325.1" style="opacity:0.2"></polygon><polygon points="203.42 340.95 216.4 343.62 251.75 336.88 252.62 338.24 216.73 344.72 202.72 343.91 203.42 340.95" style="opacity:0.2"></polygon><path d="M127.85,363.64a3.79,3.79,0,0,0-4.32,2.93,4.83,4.83,0,0,0,2.32,4.93,6.73,6.73,0,0,0,5.62.43,4,4,0,0,0,2.11-1.48,3.52,3.52,0,0,0,.11-3.12,5.44,5.44,0,0,0-4.28-3.32" style="fill:#fff"></path><path d="M202.78,360.84h0a1.33,1.33,0,0,0,.95,1.2,200.78,200.78,0,0,0,44,8,19.87,19.87,0,0,0,6.84-.38,8.19,8.19,0,0,0,3.71-2.24,1.33,1.33,0,0,0-.91-2.24,486,486,0,0,1-53-5.73A1.32,1.32,0,0,0,202.78,360.84Z" style="fill:#fff"></path><polygon points="119.1 291.67 88.48 303.1 4.54 290.76 4.54 278.43 119.1 291.67" style="fill:#455a64"></polygon><polygon points="123.5 324.29 139.2 325.81 150.16 320.76 148.28 318.86 138.61 324.83 125.01 322.34 123.5 324.29" style="opacity:0.2"></polygon><polyline points="118.36 342.95 131.29 338.94 158.24 344.14 161.37 343.05 166.62 337.42 168.21 339.02 161.98 343.72 158.71 346.03 131.29 340.8 117.93 347.09 118.51 343.67" style="opacity:0.2"></polyline><polygon points="87.66 330.19 39.4 307.83 80.09 332.39 84.03 356.84 102.5 356.76 87.66 330.19" style="fill:#6f4439"></polygon><polygon points="18.65 320.1 29.93 322.34 56.38 318.44 58.57 316.51 61.83 317.95 58.2 319.18 29.67 325.81 16.61 324.03 18.65 320.1" style="opacity:0.2"></polygon><polygon points="4.54 345.6 30.46 339.31 81.18 344.18 92.32 338.53 94.31 342 82.46 347.09 30.46 341.29 4.54 350.56 4.54 345.6" style="opacity:0.2"></polygon><path d="M60.1,363.75c-.66-.24-3.37-9.16-11.4-16.73a132.67,132.67,0,0,0-19-14.22l-10.34,7.54-8.64,22.42Z" style="fill:#ae7461"></path><path d="M60.1,363.75l-13.89-.2c-8.77-.12-21.2-.26-35.48-.54h-.36l.13-.34,5.68-14.73,3-7.68,0-.07.06-.05,10.35-7.53.13-.1.14.09a140.44,140.44,0,0,1,14.46,10.32,69.37,69.37,0,0,1,5.6,5,41,41,0,0,1,4.14,5,50.59,50.59,0,0,1,4.6,7.91,16.86,16.86,0,0,0,1.45,2.92c-.12.1-.66-.95-1.6-2.85a54.24,54.24,0,0,0-4.69-7.8,42.73,42.73,0,0,0-4.16-4.89,73.1,73.1,0,0,0-5.6-5A143.62,143.62,0,0,0,29.6,333h.27l-10.33,7.55.09-.11c-1,2.51-2,5.08-3,7.68L11,362.85l-.23-.35c14.11.29,26.36.65,35.18.88Z" style="fill:#6f4439"></path><path d="M29.72,332.8,38,347.1l-2.28,2.83,5.52,1.32L47,363.49l13.08.26s-3.67-6.91-7.51-12.5C48.62,345.45,29.72,332.8,29.72,332.8Z" style="fill:#6f4439"></path><polygon points="15.5 350.42 38.51 355.41 42.61 354.19 50.4 348.72 52.59 351.25 43.51 356.1 39.4 359.7 13.37 355.93 15.5 350.42" style="opacity:0.2"></polygon><polygon points="84.44 314.52 101.49 343.81 113.85 343.61 91.74 313.89 84.44 314.52" style="fill:#6f4439"></polygon><polygon points="167.11 324.03 171.25 338.53 170.42 325.1 186.48 324.03 167.11 324.03" style="fill:#6f4439"></polygon><polygon points="154.04 310.08 157.75 318.86 176.79 318.44 167.11 314.47 163.49 310.45 157.12 310.08 154.04 310.08" style="fill:#6f4439"></polygon><polyline points="702.27 292.39 690.9 244.81 684.82 243.21 690.11 241.84 681.12 197.24 674.77 230.63 681.12 232.23 674.77 234.29 668.43 266.77 676.36 268.37 668.43 271.11 664.2 292.39" style="fill:#455a64"></polyline><path d="M664.2,292.39s0-.13,0-.37.11-.61.19-1.07c.18-1,.45-2.36.79-4.17.71-3.66,1.74-9,3-15.7V271l.09,0,7.92-2.77,0,.34L668.39,267l-.19,0,0-.19c1.81-9.36,4-20.39,6.3-32.49l0-.14.14,0L681,232l0,.47-6.35-1.6-.23-.05,0-.24c1.63-8.63,3.38-17.85,5.18-27.34q.59-3,1.15-6.05l.25-1.31.27,1.31c3.22,16,6.26,31.15,9,44.6l0,.22-.21.05-5.29,1.37V243L691,244.6l.12,0,0,.12c3.4,14.37,6.21,26.27,8.18,34.59,1,4.14,1.72,7.39,2.24,9.63.24,1.1.44,1.94.57,2.53s.17.88.17.88-.09-.29-.23-.86-.36-1.43-.64-2.52c-.55-2.23-1.34-5.47-2.35-9.6-2-8.32-4.89-20.2-8.36-34.55l.16.16-6.08-1.59-.83-.22.83-.22,5.28-1.38-.17.27c-2.72-13.44-5.77-28.56-9-44.59h.51c-.38,2-.77,4-1.15,6.05-1.81,9.49-3.56,18.7-5.21,27.34l-.18-.29,6.34,1.6.84.21-.82.27-6.35,2.05.16-.18c-2.38,12.08-4.55,23.11-6.39,32.47l-.15-.23,7.93,1.62.63.13-.61.21-7.94,2.72.1-.12c-1.37,6.71-2.45,12-3.19,15.67-.38,1.8-.67,3.19-.87,4.15-.1.46-.17.81-.23,1.07A3.57,3.57,0,0,1,664.2,292.39Z" style="fill:#263238"></path><path d="M719.57,293.56a8.88,8.88,0,0,1-2-2.33,9.1,9.1,0,0,1-1.53-2.63,9.18,9.18,0,0,1,2,2.33A9.28,9.28,0,0,1,719.57,293.56Z" style="fill:#263238"></path><path d="M720.17,293.39a18.47,18.47,0,0,1-1.67-6,9.48,9.48,0,0,1,1.08,2.93A10,10,0,0,1,720.17,293.39Z" style="fill:#263238"></path><path d="M722.33,288.15a6.21,6.21,0,0,1-.3,2.51,6.29,6.29,0,0,1-.82,2.4,12.51,12.51,0,0,1,1.12-4.91Z" style="fill:#263238"></path><path d="M669.48,304a8,8,0,0,1-1.67-2.32,7.78,7.78,0,0,1-1.21-2.58,8.12,8.12,0,0,1,1.66,2.32A7.93,7.93,0,0,1,669.48,304Z" style="fill:#263238"></path><path d="M671.65,303.59a18.64,18.64,0,0,1-2.22-5.77,9.53,9.53,0,0,1,1.35,2.79A9.76,9.76,0,0,1,671.65,303.59Z" style="fill:#263238"></path><path d="M674.82,303.27a9.51,9.51,0,0,1-.21-3.11,9.27,9.27,0,0,1,.32-3.11,9.77,9.77,0,0,1,.2,3.12A9.35,9.35,0,0,1,674.82,303.27Z" style="fill:#263238"></path><polyline points="89.98 292.21 78.61 244.63 72.53 243.03 77.82 241.66 68.83 197.06 62.48 230.45 68.83 232.05 62.48 234.11 56.14 266.59 64.07 268.19 56.14 270.94 51.91 292.21" style="fill:#455a64"></polyline><path d="M51.91,292.21s0-.13.05-.37.11-.61.19-1.07c.18-1,.45-2.36.79-4.17.71-3.66,1.74-9,3.05-15.69v-.09l.09,0L64,268l0,.34-7.94-1.58-.19,0,0-.19c1.81-9.36,3.95-20.39,6.3-32.49l0-.14.14,0,6.34-2.06,0,.47-6.35-1.59-.23-.06.05-.24c1.64-8.63,3.38-17.84,5.18-27.34q.58-3,1.16-6.05l.24-1.31.27,1.31c3.22,16,6.26,31.15,9,44.6l0,.22-.21,0-5.29,1.37v-.44l6.08,1.61.12,0,0,.12C82.22,259,85,270.85,87,279.17c1,4.14,1.72,7.39,2.24,9.63.24,1.1.44,1.94.57,2.53s.17.88.17.88-.09-.29-.23-.86-.36-1.43-.64-2.52c-.55-2.23-1.34-5.47-2.35-9.6-2-8.31-4.89-20.2-8.35-34.55l.15.16-6.08-1.59-.83-.22.83-.22,5.28-1.38-.17.27c-2.71-13.44-5.77-28.56-9-44.59h.51c-.38,2-.77,4-1.15,6-1.81,9.49-3.56,18.71-5.21,27.34l-.18-.29,6.34,1.6.84.21-.82.27-6.35,2.05.16-.18c-2.38,12.08-4.55,23.11-6.39,32.47l-.15-.23L64.11,268l.63.13-.61.21-7.94,2.72.1-.11c-1.37,6.7-2.45,12-3.19,15.66-.38,1.8-.67,3.19-.87,4.15-.1.46-.17.81-.23,1.07A3.57,3.57,0,0,1,51.91,292.21Z" style="fill:#263238"></path><path d="M77.72,304.53a8,8,0,0,1-1.66-2.32,8,8,0,0,1-1.22-2.57A7.73,7.73,0,0,1,76.51,302,7.87,7.87,0,0,1,77.72,304.53Z" style="fill:#263238"></path><path d="M79.9,304.17a9.12,9.12,0,0,1-1.36-2.8,9.69,9.69,0,0,1-.87-3A9.41,9.41,0,0,1,79,301.18,9.78,9.78,0,0,1,79.9,304.17Z" style="fill:#263238"></path><path d="M83.07,303.85a9.32,9.32,0,0,1-.21-3.12,9.76,9.76,0,0,1,.31-3.11,9.32,9.32,0,0,1,.21,3.12A9.76,9.76,0,0,1,83.07,303.85Z" style="fill:#263238"></path><path d="M20.11,293.85a8.75,8.75,0,0,1-2-2.33,9,9,0,0,1-1.54-2.63,9,9,0,0,1,2,2.33A9.28,9.28,0,0,1,20.11,293.85Z" style="fill:#263238"></path><path d="M20.71,293.68a9.61,9.61,0,0,1-1.09-2.93,9.46,9.46,0,0,1-.58-3.07,9.48,9.48,0,0,1,1.08,2.93A9.6,9.6,0,0,1,20.71,293.68Z" style="fill:#263238"></path><path d="M22.87,288.44a6.21,6.21,0,0,1-.3,2.51,6.29,6.29,0,0,1-.82,2.4,6.33,6.33,0,0,1,.31-2.51A6.38,6.38,0,0,1,22.87,288.44Z" style="fill:#263238"></path><path d="M574.4,327.65l-121.13-.81c-4.29,0-9.78.82-10.68,5.06a5.89,5.89,0,0,0,2.42,5.8c2.81,2.15,6.36,2.25,9.74,2.31l51.08.92-.92.45c-5.1,2.5-3.43,10.67,2.24,10.34,52.35-3.09,82.13-10.42,132.08-10.65-2.2,2.71,8,5.14,4.72,6.14-3.58,1.08-7.34,4.85-4.87,8.15a5.33,5.33,0,0,0,4.78,2l40.7-3.67c-2.77-.51-5.23,2.66-4.71,5.43s6.83,4.62,9.57,5.25,9.75-.56,12.56-.78c36.67-3,38-3.94,41-13.6l-7.08-21.1Z" style="fill:#fff"></path><polygon points="474.93 335.08 479.63 329.16 494.54 325.68 505.37 309.75 532.33 305.46 633.65 295.04 638.15 289.93 743.85 277.72 743.85 339.79 474.93 335.08" style="fill:#ae7461"></polygon><path d="M552,336.59a85.38,85.38,0,0,1,4.08-8.4,84.72,84.72,0,0,1,4.54-8.16,85.38,85.38,0,0,1-4.08,8.4A83.24,83.24,0,0,1,552,336.59Z" style="fill:#6f4439"></path><path d="M653.47,350c.2-.61,13.68-24.51,13.68-24.51l44.54-20.63,15.93,5.1,16.23,29.84v10.29Z" style="fill:#ae7461"></path><path d="M653.47,350h1.79l5.12,0,19-.05,64.51-.06-.26.25V339.79l0,.12c-2.08-3.81-4.27-7.84-6.49-11.93-3.33-6.11-6.58-12.1-9.73-17.9l.14.12-15.93-5.12h.18l-44.56,20.56.07-.07c-8.57,15.15-13.2,23.32-13.83,24.43,0,0,0-.14.19-.44l.66-1.26,2.64-4.85c2.35-4.22,5.76-10.35,10-18l0,0,.05,0,44.5-20.7.09,0,.09,0,15.94,5.1.1,0,.05.09c3.15,5.8,6.41,11.79,9.74,17.9l6.48,11.94,0,.06v10.61h-.25l-64.72-.2-18.89-.08-5,0H653.9Z" style="fill:#6f4439"></path><path d="M480.17,329s3.07,2,3.6,1.84,32.79,2,32.79,2l29.52-1.9s-10.15-2.8-10.89-2.67-27.78,0-28.82,0-11.83-2.58-11.83-2.58Z" style="fill:#455a64"></path><path d="M505.05,309.75l1.26,1.53,12,1.17s23.25-3.78,23.64-3.78,18.42,2,18.95,1.89,22.73-2.29,38.4-3.46S669.73,311,670.13,311s20.64-6.17,20.64-6.17l53.09-5.24s.15-12.51,0-12.84c0,0-75,13.54-81.3,12.75S633.34,295,633.34,295L541,303.35Z" style="fill:#455a64"></path><polygon points="506.63 311.28 506.37 328.26 523.54 328.31 518.64 312.45 506.63 311.28" style="fill:#6f4439"></polygon><path d="M584.3,314.75c-.5.25-19.6,2.73-19.6,2.73l-4.09,2.32h33.24l20.71-5.05S584.79,314.5,584.3,314.75Z" style="fill:#455a64"></path><polygon points="705.74 221.06 700.77 247.21 705.74 248.47 700.77 250.08 695.8 275.52 702.01 276.77 695.8 278.92 692.49 295.58 722.31 295.58 713.4 258.32 708.64 257.07 712.78 255.99 705.74 221.06" style="fill:#455a64"></polygon><polygon points="604.94 255.93 602.03 271.23 604.94 271.96 602.03 272.9 599.13 287.78 602.76 288.51 599.13 289.77 597.19 299.51 614.63 299.51 609.42 277.72 606.63 276.99 609.06 276.36 604.94 255.93" style="fill:#455a64"></polygon><polyline points="632.19 299.51 625.65 272.16 622.15 271.24 625.19 270.45 620.02 244.81 616.38 264.01 620.02 264.93 616.38 266.11 612.73 284.78 617.29 285.7 612.73 287.28 610.3 299.51" style="fill:#455a64"></polyline><path d="M610.3,299.51s0-.07,0-.21.06-.37.1-.62c.1-.58.25-1.38.44-2.4.4-2.13,1-5.18,1.72-9v-.08l.09,0,4.55-1.6,0,.34-4.56-.91-.19,0,0-.19,3.6-18.68,0-.14.13-.05,3.65-1.19v.48l-3.64-.92-.24-.05,0-.24c.94-5,1.94-10.26,3-15.72q.33-1.76.66-3.48l.25-1.31.26,1.31c1.85,9.22,3.59,17.91,5.14,25.65l0,.21-.21.06-3,.78V271l3.49.93.13,0,0,.12c1.93,8.25,3.53,15.09,4.66,19.89.54,2.37,1,4.24,1.26,5.55.14.61.24,1.1.32,1.46a3.19,3.19,0,0,1,.09.5A2.25,2.25,0,0,1,632,299c-.1-.35-.22-.83-.38-1.44l-1.38-5.52c-1.17-4.8-2.83-11.62-4.84-19.85l.15.16-3.49-.91-.83-.22.83-.22,3-.79-.17.27-5.2-25.64h.51q-.33,1.72-.66,3.48c-1,5.46-2,10.75-3,15.72l-.18-.3,3.65.93.83.21-.82.26-3.65,1.18.16-.18c-1.37,6.94-2.62,13.28-3.69,18.66l-.15-.23,4.55.94.64.13-.61.21-4.57,1.56.1-.12c-.8,3.84-1.43,6.88-1.86,9-.22,1-.4,1.81-.52,2.39-.06.25-.1.45-.14.61Z" style="fill:#263238"></path><polygon points="656.73 237 652.23 260.67 656.73 261.8 652.23 263.26 647.74 286.28 653.36 287.42 647.74 289.36 644.74 304.44 671.72 304.44 663.66 270.72 659.36 269.58 663.1 268.61 656.73 237" style="fill:#455a64"></polygon><path d="M590,347.32l-9.26-1.49,33-33.38,7.4-3.77s4.67-.31,4.16,0S590,347.32,590,347.32Z" style="fill:#6f4439"></path><path d="M639.23,344.79c-.11-.31-.92-19.28-.92-19.28l-13-16.83L590,347.32Z" style="fill:#ae7461"></path><path d="M639.23,344.79l-.23,0-.68.05-2.69.17-10.17.59L590,347.57l-.6,0,.41-.44L604.55,331l20.61-22.52.18-.21.18.22c4.91,6.42,9.29,12.13,12.93,16.88l0,0v.06c.45,11.68.68,17.94.74,19.28a1.19,1.19,0,0,1-.06-.34c0-.24,0-.57-.09-1-.05-.9-.13-2.18-.23-3.81-.17-3.35-.41-8.16-.72-14.14l0,.1-13-16.8h.36c-6.2,6.81-13.19,14.47-20.57,22.56l-14.72,16.1-.19-.42,35.23-1.68,10.25-.47,2.75-.11.72,0A.92.92,0,0,1,639.23,344.79Z" style="fill:#6f4439"></path><polygon points="508.02 343.86 537.23 297.7 544.18 297.7 553.37 306.07 562.36 343.86 508.02 343.86" style="fill:#ae7461"></polygon><path d="M508,343.86h1.07l3,0,11.27-.06,39-.14-.24.3c-2.09-8.78-4.39-18.41-6.78-28.46l-2.22-9.33.08.13L544,297.88l.17.07h-6.95l.21-.11-21.07,33-6.11,9.54L508.61,343l-.43.66a1.74,1.74,0,0,1-.16.23,1.37,1.37,0,0,0,.12-.21l.4-.64,1.57-2.53,6-9.54,21-33.37.07-.12h7.18l.07.06,9.2,8.37.05.05,0,.08,2.22,9.33c2.39,10.06,4.67,19.68,6.76,28.47l.07.3h-.31l-39.2-.14L512,343.91l-3,0h-1Z" style="fill:#6f4439"></path><path d="M544.18,297.7S518,343.86,517.49,343.86H508l29.21-46.16Z" style="fill:#6f4439"></path><polygon points="556.87 320.78 549.5 323.11 533.07 317.22 524.15 318.37 521.39 322.74 532.54 318.89 548.87 323.85 550.03 323.85 557.37 322.88 556.87 320.78" style="opacity:0.2"></polygon><polygon points="560.35 335.41 548.37 337.87 515.75 331.65 514.96 332.91 548.06 338.88 561 338.14 560.35 335.41" style="opacity:0.2"></polygon><path d="M630.07,356.34a3.51,3.51,0,0,1,4,2.7,4.45,4.45,0,0,1-2.14,4.55,6.17,6.17,0,0,1-5.18.39,3.58,3.58,0,0,1-2-1.36,3.24,3.24,0,0,1-.1-2.88,5,5,0,0,1,3.94-3.06" style="fill:#fff"></path><path d="M560.94,353.75h0a1.23,1.23,0,0,1-.88,1.11,184.53,184.53,0,0,1-40.56,7.37,17.81,17.81,0,0,1-6.31-.35,7.44,7.44,0,0,1-3.43-2.07,1.23,1.23,0,0,1,.85-2.06,446,446,0,0,0,48.91-5.29A1.22,1.22,0,0,1,560.94,353.75Z" style="fill:#fff"></path><polygon points="638.15 289.93 666.39 300.48 743.85 289.1 743.85 277.72 638.15 289.93" style="fill:#455a64"></polygon><polyline points="702.27 292.39 690.9 244.81 684.82 243.21 690.11 241.84 681.12 197.24 674.77 230.63 681.12 232.23 674.77 234.29 668.43 266.77 676.36 268.37 668.43 271.11 664.2 292.39" style="fill:#455a64"></polyline><path d="M664.2,292.39s0-.13,0-.37.11-.61.19-1.07c.18-1,.45-2.36.79-4.17.71-3.66,1.74-9,3-15.7V271l.09,0,7.92-2.77,0,.34L668.39,267l-.19,0,0-.19c1.81-9.36,4-20.39,6.3-32.49l0-.14.14,0L681,232l0,.47-6.35-1.6-.23-.05,0-.24c1.63-8.63,3.38-17.85,5.18-27.34q.59-3,1.15-6.05l.25-1.31.27,1.31c3.22,16,6.26,31.15,9,44.6l0,.22-.21.05-5.29,1.37V243L691,244.6l.12,0,0,.12c3.4,14.37,6.21,26.27,8.18,34.59,1,4.14,1.72,7.39,2.24,9.63.24,1.1.44,1.94.57,2.53s.17.88.17.88-.09-.29-.23-.86-.36-1.43-.64-2.52c-.55-2.23-1.34-5.47-2.35-9.6-2-8.32-4.89-20.2-8.36-34.55l.16.16-6.08-1.59-.83-.22.83-.22,5.28-1.38-.17.27c-2.72-13.44-5.77-28.56-9-44.59h.51c-.38,2-.77,4-1.15,6.05-1.81,9.49-3.56,18.7-5.21,27.34l-.18-.29,6.34,1.6.84.21-.82.27-6.35,2.05.16-.18c-2.38,12.08-4.55,23.11-6.39,32.47l-.15-.23,7.93,1.62.63.13-.61.21-7.94,2.72.1-.12c-1.37,6.71-2.45,12-3.19,15.67-.38,1.8-.67,3.19-.87,4.15-.1.46-.17.81-.23,1.07A3.57,3.57,0,0,1,664.2,292.39Z" style="fill:#263238"></path><path d="M719.57,293.56a8.88,8.88,0,0,1-2-2.33,9.1,9.1,0,0,1-1.53-2.63,9.18,9.18,0,0,1,2,2.33A9.28,9.28,0,0,1,719.57,293.56Z" style="fill:#263238"></path><path d="M720.17,293.39a18.47,18.47,0,0,1-1.67-6,9.48,9.48,0,0,1,1.08,2.93A10,10,0,0,1,720.17,293.39Z" style="fill:#263238"></path><path d="M722.33,288.15a6.21,6.21,0,0,1-.3,2.51,6.29,6.29,0,0,1-.82,2.4,12.51,12.51,0,0,1,1.12-4.91Z" style="fill:#263238"></path><path d="M669.48,304a8,8,0,0,1-1.67-2.32,7.78,7.78,0,0,1-1.21-2.58,8.12,8.12,0,0,1,1.66,2.32A7.93,7.93,0,0,1,669.48,304Z" style="fill:#263238"></path><path d="M671.65,303.59a18.64,18.64,0,0,1-2.22-5.77,9.53,9.53,0,0,1,1.35,2.79A9.76,9.76,0,0,1,671.65,303.59Z" style="fill:#263238"></path><path d="M674.82,303.27a9.51,9.51,0,0,1-.21-3.11,9.27,9.27,0,0,1,.32-3.11,9.77,9.77,0,0,1,.2,3.12A9.35,9.35,0,0,1,674.82,303.27Z" style="fill:#263238"></path><polygon points="634.09 320.03 619.6 321.43 609.49 316.78 611.23 315.02 620.15 320.53 632.7 318.23 634.09 320.03" style="opacity:0.2"></polygon><polyline points="638.83 337.25 626.9 333.55 602.03 338.35 599.14 337.34 594.3 332.14 592.84 333.63 598.58 337.96 601.6 340.09 626.9 335.27 639.23 341.07 638.69 337.91" style="opacity:0.2"></polyline><polygon points="667.15 325.48 711.69 304.85 674.14 327.51 670.51 350.06 653.47 349.99 667.15 325.48" style="fill:#6f4439"></polygon><polygon points="730.83 316.16 720.42 318.23 696.01 314.64 694 312.85 690.99 314.19 694.34 315.32 720.66 321.43 732.71 319.8 730.83 316.16" style="opacity:0.2"></polygon><polygon points="743.85 339.7 719.93 333.89 673.14 338.38 662.86 333.17 661.02 336.37 671.96 341.07 719.93 335.71 743.85 344.27 743.85 339.7" style="opacity:0.2"></polygon><path d="M692.58,356.44c.61-.22,3.11-8.45,10.53-15.44a122.46,122.46,0,0,1,17.5-13.12l9.54,7,8,20.68Z" style="fill:#ae7461"></path><path d="M692.58,356.44l13.09-.34c8.14-.23,19.43-.56,32.45-.83l-.23.34L732.64,342q-1.38-3.61-2.73-7.09l.09.11-9.53-7,.27,0a131.19,131.19,0,0,0-13.33,9.43,65.5,65.5,0,0,0-5.17,4.59,38.29,38.29,0,0,0-3.84,4.5,50.82,50.82,0,0,0-4.34,7.2c-.86,1.75-1.36,2.72-1.48,2.62a14.39,14.39,0,0,0,1.34-2.7,46.66,46.66,0,0,1,4.23-7.3,40.26,40.26,0,0,1,3.82-4.58,65.55,65.55,0,0,1,5.17-4.66,129.78,129.78,0,0,1,13.35-9.53l.13-.08.14.1,9.54,6.94.07.05,0,.07,2.74,7.09c1.82,4.71,3.58,9.29,5.23,13.59l.13.34h-.36c-13.17.26-24.65.38-32.74.48Z" style="fill:#6f4439"></path><path d="M720.61,327.88l-7.6,13.2,2.1,2.61-5.1,1.22-5.35,11.29-12.08.24s3.4-6.38,6.93-11.53C703.18,339.56,720.61,327.88,720.61,327.88Z" style="fill:#6f4439"></path><polygon points="733.74 344.15 712.5 348.75 708.73 347.62 701.54 342.57 699.51 344.91 707.89 349.38 711.69 352.7 735.7 349.23 733.74 344.15" style="opacity:0.2"></polygon><polygon points="670.13 311.02 654.39 338.05 642.99 337.86 663.39 310.44 670.13 311.02" style="fill:#6f4439"></polygon><polygon points="593.85 319.8 590.03 333.17 590.8 320.78 575.98 319.8 593.85 319.8" style="fill:#6f4439"></polygon><polygon points="605.91 306.92 602.49 315.02 584.91 314.64 593.85 310.97 597.19 307.26 603.07 306.92 605.91 306.92" style="fill:#6f4439"></polygon></g><g id="freepik--Shrubs--inject-18"><path d="M663.64,370.78s0,.14,0,.43,0,.71,0,1.25c0,1.1,0,2.72,0,4.81a168.51,168.51,0,0,0,1.26,17.64c.94,7.41,1.88,16.26,3,26.09s2,20.65,3.13,32c2.11,22.72-.56-.72,1.33,14.1.93,7.42,1.81,13.4,2.41,17.54.31,2.05.55,3.65.72,4.76.08.52.14.94.18,1.24a3.2,3.2,0,0,1,0,.42l-.09-.42c-.05-.29-.13-.7-.22-1.23l-.81-4.74c-.66-4.13-1.59-10.11-2.56-17.53-2-14.82.64,8.63-1.47-14.09-1.09-11.36-2-22.19-3.09-32s-2-18.68-2.85-26.1a159.83,159.83,0,0,1-1.12-17.68c0-2.09,0-3.71.08-4.81,0-.54,0-.95.05-1.26S663.64,370.78,663.64,370.78Z" style="fill:#455a64"></path><path d="M645.56,393.66a2.53,2.53,0,0,1,.22.47l.53,1.37c.47,1.2,1.16,2.92,2.08,5a155.51,155.51,0,0,0,8.21,15.88c3.52,6.05,6.92,11.39,9.33,15.29l2.85,4.63.75,1.27a2.31,2.31,0,0,1,.24.46s-.13-.13-.32-.41l-.83-1.22c-.73-1.13-1.74-2.67-3-4.55-2.48-3.86-5.93-9.18-9.46-15.23a139.72,139.72,0,0,1-8.11-16c-.88-2.12-1.53-3.87-1.94-5.08l-.45-1.41A1.9,1.9,0,0,1,645.56,393.66Z" style="fill:#455a64"></path><path d="M652,408.58c.35-.32,1.13-.17.23-3.18s-7.19-13-7.19-13,1.67,7.52,3,10.44C650.17,407.79,652,408.58,652,408.58Z" style="fill:#455a64"></path><path d="M655.39,415.77c.15-.42.23.22-.46-1.32-1.29-2.92-13.41-11.11-13.41-11.11a100.11,100.11,0,0,0,7.58,8.6C653.36,415.72,655.39,415.77,655.39,415.77Z" style="fill:#455a64"></path><path d="M660,422.91c.07-.36.21.15-.53-1.05-1.39-2.27-12.19-7.88-12.19-7.88a88.17,88.17,0,0,0,7.16,6.36C658.39,423.05,660,422.91,660,422.91Z" style="fill:#455a64"></path><path d="M664,429c0-.3.19.1-.54-.79-1.37-1.69-10.72-5.06-10.72-5.06a70.94,70.94,0,0,0,6.49,4.37C662.69,429.31,664,429,664,429Z" style="fill:#455a64"></path><path d="M661.85,425.59c.29-.11,0,.21.5-.82,1-2,.16-11.82.16-11.82a69.22,69.22,0,0,0-1.29,7.7C661,424.51,661.85,425.59,661.85,425.59Z" style="fill:#455a64"></path><path d="M664.77,391c-.3-.27-.09.24-.21-1.16-.22-2.65,5.86-13,5.86-13a74.68,74.68,0,0,1-2.32,9.11C666.35,390.24,664.77,391,664.77,391Z" style="fill:#455a64"></path><path d="M663.88,384.92c-.38.12.16.2-1.1-.41-2.4-1.16-8.24-11.65-8.24-11.65a75.36,75.36,0,0,1,6.68,6.62C664.05,383.18,663.88,384.92,663.88,384.92Z" style="fill:#455a64"></path><path d="M663.7,378.81c-.39-.14,0,.26-.62-1-1.16-2.39.78-14.24.78-14.24a74.12,74.12,0,0,1,1.12,9.33C664.9,377.55,663.7,378.81,663.7,378.81Z" style="fill:#455a64"></path><path d="M690.93,400a2.74,2.74,0,0,0-.15.63c-.09.47-.2,1.08-.34,1.81-.29,1.58-.72,3.85-1.36,6.64a198,198,0,0,1-6.32,21.44c-2.89,8.25-5.8,15.62-7.84,21l-2.4,6.35-.62,1.73a2.37,2.37,0,0,0-.18.63,3.06,3.06,0,0,0,.29-.58l.72-1.7,2.57-6.28c2.14-5.32,5.12-12.67,8-20.93a171.71,171.71,0,0,0,6.18-21.55c.58-2.81,1-5.1,1.18-6.69.09-.75.16-1.35.22-1.84A2.38,2.38,0,0,0,690.93,400Z" style="fill:#455a64"></path><path d="M686.53,419.81c-.5-.31-1.43.06-1-3.85s5.76-17.65,5.76-17.65-.27,9.63-1.15,13.52C688.61,418.4,686.53,419.81,686.53,419.81Z" style="fill:#455a64"></path><path d="M684.1,429.44c-.3-.49-.24.31.24-1.74.9-3.88,13.84-16.8,13.84-16.8s-4.7,9-7.27,12.35C686.57,428.89,684.1,429.44,684.1,429.44Z" style="fill:#455a64"></path><path d="M680.08,439.29c-.18-.42-.23.24.39-1.41,1.18-3.12,13.11-12.56,13.11-12.56a108.78,108.78,0,0,1-7.29,9.51C682.14,439.08,680.08,439.29,680.08,439.29Z" style="fill:#455a64"></path><path d="M676.65,447.73c-.1-.36-.21.17.47-1.1,1.29-2.39,12-8.74,12-8.74a89.23,89.23,0,0,1-6.93,6.9C678.34,447.78,676.65,447.73,676.65,447.73Z" style="fill:#455a64"></path><path d="M678.48,443c-.37-.07.07.26-.8-.89-1.65-2.17-3-14.47-3-14.47a87.41,87.41,0,0,1,3.41,9.15C679.23,441.5,678.48,443,678.48,443Z" style="fill:#455a64"></path><path d="M740.42,429.65H726.09l-12.2,62.09V432.3l-14.33,2.12v52l-15.39-48.29-24.41,3.71L664,487.49l-13.8-43s-10.61,0-10.08,1.59,4.25,37.15,4.25,37.15l-16.46-34.5-10.61,6.9,9,32.9-20.16-27.86-5.84,5L612,488.55,596.6,477.94l-9,4.25v12.28h156V429.65" style="fill:#455a64"></path><path d="M200.93,478.42l-16,11,12.13-23.72L191,460.49l-21,29,9.37-34.2-11-7.17-17.1,35.85s3.86-36.95,4.41-38.61-10.48-1.65-10.48-1.65l-14.34,44.67,4.42-47.43-25.38-3.86-16,50.19V433.19L79,431l-7.24,57.24-5.44-60H43.57V464.6L29.9,428.94,4.54,431v65l205.77-.35L221,494.38Z" style="fill:#455a64"></path></g><g id="freepik--Rock--inject-18"><path d="M211.79,424c0,.14-34,.26-75.93.26s-75.94-.12-75.94-.26,34-.26,75.94-.26S211.79,423.87,211.79,424Z" style="fill:#fff"></path><path d="M85,423.8l.94.21c3.27.73,13.23,2.84,14.29,3,1.22.16,34.44,1.58,34.44,1.58l-3.55,2.83L154,438.09a20,20,0,0,0,8,.67l61.52-7.16-38.74-1.28,2.1-3.33,3.57-3.19" style="fill-rule:evenodd;opacity:0.2"></path><path d="M85,423.8c.24-.73,16.14-28.91,16.14-28.91l52.5-24.32,18.79,6,18.06,34.92s1,11.8,0,12.29S85,423.8,85,423.8Z" style="fill:#ae7461"></path><path d="M85,423.8a4.92,4.92,0,0,1,.6,0h1.74l6.73,0H119l37.4,0,22.32,0,5.88,0,3,0,1.5,0,1.29-.05a1.83,1.83,0,0,0,.17-.59,5.82,5.82,0,0,0,.07-.73c0-.5.05-1,.06-1.5,0-1,0-2-.06-3.05-.08-2-.21-4.1-.37-6.17l0,.1c-2.37-4.56-4.86-9.38-7.39-14.27q-5.46-10.58-10.68-20.65l.15.12-18.78-6h.18l-52.54,24.26.08-.07L85,423.8s.07-.17.24-.52l.78-1.49c.71-1.32,1.76-3.23,3.11-5.71l11.86-21.27,0-.05,0,0,52.47-24.4.09,0,.09,0,18.79,6,.1,0,.05.09c3.47,6.7,7,13.61,10.69,20.65,2.52,4.89,5,9.71,7.37,14.27l0,.05v.05c.16,2.08.29,4.14.37,6.19,0,1,.06,2.05.06,3.07,0,.51,0,1-.06,1.53,0,.26,0,.52-.08.78a1.85,1.85,0,0,1-.28.84.79.79,0,0,1-.15.12l-.12,0-.24,0c-.17,0-.27,0-.4,0l-.76,0-1.5,0-3,0-5.88,0H156.35L119,424.1,94,423.93l-6.73-.07-1.75,0C85.15,423.82,84.94,423.8,85,423.8Z" style="fill:#6f4439"></path><polygon points="101.09 394.89 153.59 370.57 109.32 397.29 105.04 423.88 84.95 423.8 101.09 394.89" style="fill:#6f4439"></polygon><polygon points="176.17 383.91 163.89 386.35 135.12 382.11 132.74 380.01 129.19 381.58 133.14 382.91 164.18 390.13 178.38 388.19 176.17 383.91" style="opacity:0.2"></polygon><polygon points="190.44 411.51 163.31 404.81 108.14 410.11 96.02 403.97 93.86 407.74 106.75 413.28 163.31 406.96 190.44 416.9 190.44 411.51" style="opacity:0.2"></polygon><path d="M131.07,431.4c.72-.26,3.67-10,12.41-18.2s20.64-15.47,20.64-15.47l11.24,8.21,9.81,25.41Z" style="fill:#ae7461"></path><path d="M131.07,431.4l54.1-.3-.24.34c-2-5.17-4.12-10.68-6.31-16.35l-3.5-9.06.09.11L164,397.93h.28a154.45,154.45,0,0,0-15.74,11.14,78.36,78.36,0,0,0-6.09,5.42,46.06,46.06,0,0,0-4.52,5.31,59.65,59.65,0,0,0-5.1,8.49c-1,2.07-1.6,3.21-1.73,3.1a17.57,17.57,0,0,0,1.58-3.17,57,57,0,0,1,5-8.6,45.2,45.2,0,0,1,4.51-5.39,80.49,80.49,0,0,1,6.09-5.49A152.22,152.22,0,0,1,164,397.52l.14-.09.13.1,11.26,8.2.06,0,0,.07,3.49,9.06c2.19,5.67,4.31,11.19,6.3,16.36l.13.34h-.36c-15.64,0-29.26-.08-38.86-.13Z" style="fill:#6f4439"></path><path d="M164.12,397.73l-9,15.55,2.48,3.08-6,1.44-6.32,13.31-14.23.29s4-7.52,8.17-13.6C143.57,411.5,164.12,397.73,164.12,397.73Z" style="fill:#6f4439"></path><polygon points="179.59 416.9 154.56 422.33 150.1 421 141.63 415.05 139.24 417.8 149.12 423.07 153.59 426.99 181.91 422.89 179.59 416.9" style="opacity:0.2"></polygon><path d="M248.2,431.4c0,.14-34.55.26-77.15.26s-77.15-.12-77.15-.26,34.53-.26,77.15-.26S248.2,431.26,248.2,431.4Z" style="fill:#fff"></path></g></svg>