<svg xmlns="http://www.w3.org/2000/svg" viewBox="0 0 750 500"><g id="freepik--Fireflies--inject-18"><path d="M215.62,264.33c-1.57.4-2.28,2.25-2.51,3.86a5.33,5.33,0,0,0,1.6,4.4,6.06,6.06,0,0,0,5.94,1.49,5.77,5.77,0,0,0,3.94-4.65,5.47,5.47,0,0,0-2.73-5.4,5.84,5.84,0,0,0-6.78.51" style="fill:#FF725E"></path><g style="opacity:0.7000000000000001"><path d="M215.62,264.33c-1.57.4-2.28,2.25-2.51,3.86a5.33,5.33,0,0,0,1.6,4.4,6.06,6.06,0,0,0,5.94,1.49,5.77,5.77,0,0,0,3.94-4.65,5.47,5.47,0,0,0-2.73-5.4,5.84,5.84,0,0,0-6.78.51" style="fill:#fff"></path></g><path d="M217.84,267.91a18.37,18.37,0,0,0-3.77-6.48,5.47,5.47,0,0,0-2-1.56,2,2,0,0,0-2.69,2.77,5.58,5.58,0,0,0,1.48,1.94,13.26,13.26,0,0,0,7,3.33" style="fill:#fff"></path><path d="M217.84,267.91a3.74,3.74,0,0,1-1-.14,15,15,0,0,1-2.64-.79,11.41,11.41,0,0,1-3.45-2.2,6.33,6.33,0,0,1-1.54-1.92,2.51,2.51,0,0,1,.23-2.64,2.42,2.42,0,0,1,2.6-.55,5.14,5.14,0,0,1,2,1.45,17.53,17.53,0,0,1,2.4,3.32,17.74,17.74,0,0,1,1.14,2.5,4.65,4.65,0,0,1,.27,1c-.07,0-.48-1.35-1.66-3.33a19.13,19.13,0,0,0-2.42-3.21,4.85,4.85,0,0,0-1.85-1.33,2.06,2.06,0,0,0-2.17.44,2.14,2.14,0,0,0-.17,2.22,6,6,0,0,0,1.43,1.81,11.65,11.65,0,0,0,3.31,2.21C216.42,267.62,217.86,267.83,217.84,267.91Z" style="fill:#263238"></path><path d="M219.62,267.47a18.28,18.28,0,0,0,6-4.51,5.17,5.17,0,0,0,1.31-2.21,2,2,0,0,0-3.06-2.35,5.9,5.9,0,0,0-1.76,1.69,13.31,13.31,0,0,0-2.48,7.38" style="fill:#fff"></path><path d="M219.62,267.47a4,4,0,0,1,0-1,15.12,15.12,0,0,1,.48-2.71,11.29,11.29,0,0,1,1.78-3.69,6.25,6.25,0,0,1,1.73-1.75,2.5,2.5,0,0,1,2.65-.08,2.4,2.4,0,0,1,.84,2.51,5,5,0,0,1-1.2,2.15,17.85,17.85,0,0,1-3,2.77,15.8,15.8,0,0,1-2.35,1.42,4,4,0,0,1-.93.39c0-.07,1.29-.64,3.12-2a19.8,19.8,0,0,0,2.9-2.77,4.74,4.74,0,0,0,1.1-2,2,2,0,0,0-.68-2.1,2.11,2.11,0,0,0-2.23.08,5.92,5.92,0,0,0-1.63,1.64,11.49,11.49,0,0,0-1.81,3.55A35.67,35.67,0,0,0,219.62,267.47Z" style="fill:#263238"></path><path d="M217.73,267.47c-.59.15-.86.85-.94,1.45a2,2,0,0,0,.59,1.66,2.29,2.29,0,0,0,2.24.56,2.16,2.16,0,0,0,1.49-1.75,2.09,2.09,0,0,0-1-2,2.21,2.21,0,0,0-2.56.2" style="fill:#FF725E"></path><path d="M217.24,273.49c0,.05-.39,0-1-.32a5.38,5.38,0,0,1-1.85-1.62,4,4,0,0,1-.83-2.33,1.52,1.52,0,0,1,.22-1c.06,0,0,.4.06,1a4.34,4.34,0,0,0,.87,2.1A10.19,10.19,0,0,0,217.24,273.49Z" style="fill:#fff"></path><path d="M219.16,273.64c.05.1-.15.29-.46.3s-.53-.15-.5-.25.25-.13.48-.15S219.12,273.54,219.16,273.64Z" style="fill:#fff"></path><path d="M223.63,266.86a3.61,3.61,0,0,1-.74,4.55,11.52,11.52,0,0,0,.8-2.21A10.9,10.9,0,0,0,223.63,266.86Z" style="fill:#fff"></path><path d="M219.2,264.09a.48.48,0,0,1-.34.05c-.12,0-.26-.05-.32-.14s.1-.3.38-.26S219.29,264,219.2,264.09Z" style="fill:#fff"></path><path d="M218.23,270.64c0,.05-.2.06-.46-.08a1.59,1.59,0,0,1-.74-.85,1.54,1.54,0,0,1,0-1.13c.11-.27.26-.39.3-.36s-.2.66.05,1.35S218.27,270.54,218.23,270.64Z" style="fill:#fff"></path><path d="M219.26,270.81a.22.22,0,0,1-.19.23.2.2,0,0,1-.24-.16.2.2,0,0,1,.18-.23A.21.21,0,0,1,219.26,270.81Z" style="fill:#fff"></path><path d="M523.13,419.25c-1.56.39-2.27,2.25-2.5,3.85a5.35,5.35,0,0,0,1.59,4.4,6.09,6.09,0,0,0,5.95,1.5,5.77,5.77,0,0,0,3.94-4.65,5.49,5.49,0,0,0-2.73-5.41,5.84,5.84,0,0,0-6.79.52" style="fill:#FF725E"></path><g style="opacity:0.7000000000000001"><path d="M523.13,419.25c-1.56.39-2.27,2.25-2.5,3.85a5.35,5.35,0,0,0,1.59,4.4,6.09,6.09,0,0,0,5.95,1.5,5.77,5.77,0,0,0,3.94-4.65,5.49,5.49,0,0,0-2.73-5.41,5.84,5.84,0,0,0-6.79.52" style="fill:#fff"></path></g><path d="M525.36,422.83a18.37,18.37,0,0,0-3.77-6.48,5.27,5.27,0,0,0-2.05-1.56,2.25,2.25,0,0,0-2.41.45,2.27,2.27,0,0,0-.28,2.32,5.68,5.68,0,0,0,1.48,1.94,13.26,13.26,0,0,0,7,3.33" style="fill:#fff"></path><path d="M525.36,422.83a4.3,4.3,0,0,1-1-.14,16.19,16.19,0,0,1-2.64-.8,11.22,11.22,0,0,1-3.45-2.2,6.25,6.25,0,0,1-1.54-1.91,2.53,2.53,0,0,1,.23-2.65,2.44,2.44,0,0,1,2.6-.54,5,5,0,0,1,2,1.45,17.06,17.06,0,0,1,3.54,5.82,4.32,4.32,0,0,1,.27,1,36.75,36.75,0,0,0-1.66-3.34,18.69,18.69,0,0,0-2.42-3.2,4.75,4.75,0,0,0-1.85-1.33,2,2,0,0,0-2.17.43,2.15,2.15,0,0,0-.17,2.23,5.88,5.88,0,0,0,1.43,1.81,11.65,11.65,0,0,0,3.31,2.21C523.94,422.54,525.38,422.74,525.36,422.83Z" style="fill:#263238"></path><path d="M527.14,422.38a18.39,18.39,0,0,0,6-4.5,5.35,5.35,0,0,0,1.31-2.22,2,2,0,0,0-3.06-2.34,5.67,5.67,0,0,0-1.76,1.69,13.25,13.25,0,0,0-2.48,7.37" style="fill:#fff"></path><path d="M527.14,422.38a3.9,3.9,0,0,1,0-1,15.42,15.42,0,0,1,.48-2.71,11.48,11.48,0,0,1,1.78-3.69,6.53,6.53,0,0,1,1.73-1.75,2.5,2.5,0,0,1,2.65-.08,2.42,2.42,0,0,1,.84,2.52,5.25,5.25,0,0,1-1.2,2.15,17.71,17.71,0,0,1-3,2.76,17,17,0,0,1-2.35,1.43,4.43,4.43,0,0,1-.93.38c0-.07,1.29-.64,3.11-2a19,19,0,0,0,2.91-2.78,4.79,4.79,0,0,0,1.1-2,2,2,0,0,0-.69-2.1,2.12,2.12,0,0,0-2.22.09,5.88,5.88,0,0,0-1.63,1.63,11.48,11.48,0,0,0-1.81,3.55A36.32,36.32,0,0,0,527.14,422.38Z" style="fill:#263238"></path><path d="M525.25,422.38c-.59.15-.86.85-1,1.45a2,2,0,0,0,.6,1.66,2.29,2.29,0,0,0,2.24.56,2.17,2.17,0,0,0,1.49-1.75,2.06,2.06,0,0,0-1-2,2.2,2.2,0,0,0-2.56.19" style="fill:#FF725E"></path><path d="M524.76,428.41a2.22,2.22,0,0,1-1-.33,5.27,5.27,0,0,1-1.85-1.62,4.06,4.06,0,0,1-.84-2.32c0-.65.19-1,.23-1s0,.39,0,1a4.5,4.5,0,0,0,.88,2.11A10.46,10.46,0,0,0,524.76,428.41Z" style="fill:#fff"></path><path d="M526.68,428.56c.05.09-.15.28-.46.3s-.54-.16-.5-.26.25-.13.48-.14S526.64,428.46,526.68,428.56Z" style="fill:#fff"></path><path d="M531.15,421.77a3,3,0,0,1,.45,2.41,2.91,2.91,0,0,1-1.19,2.14,6.3,6.3,0,0,0,.74-4.55Z" style="fill:#fff"></path><path d="M526.72,419a.44.44,0,0,1-.34,0,.46.46,0,0,1-.32-.14c-.07-.09.1-.29.37-.25S526.81,418.94,526.72,419Z" style="fill:#fff"></path><path d="M525.75,425.56c0,.05-.2.05-.46-.08a1.58,1.58,0,0,1-.74-.86,1.54,1.54,0,0,1,0-1.13c.11-.27.26-.38.3-.36s-.2.67,0,1.36S525.79,425.46,525.75,425.56Z" style="fill:#fff"></path><path d="M526.78,425.73a.22.22,0,0,1-.19.23.2.2,0,0,1-.24-.16.2.2,0,0,1,.18-.23A.21.21,0,0,1,526.78,425.73Z" style="fill:#fff"></path><path d="M329.52,300.56c-1.6-.21-2.94,1.26-3.73,2.68a5.28,5.28,0,0,0-.11,4.67,6.07,6.07,0,0,0,5,3.56,5.77,5.77,0,0,0,5.36-2.9,5.5,5.5,0,0,0-.57-6,5.87,5.87,0,0,0-6.52-2" style="fill:#FF725E"></path><g style="opacity:0.7000000000000001"><path d="M329.52,300.56c-1.6-.21-2.94,1.26-3.73,2.68a5.28,5.28,0,0,0-.11,4.67,6.07,6.07,0,0,0,5,3.56,5.77,5.77,0,0,0,5.36-2.9,5.5,5.5,0,0,0-.57-6,5.87,5.87,0,0,0-6.52-2" style="fill:#fff"></path></g><path d="M330.29,304.7a18.37,18.37,0,0,0-1.15-7.41,5.4,5.4,0,0,0-1.34-2.2,2.26,2.26,0,0,0-2.41-.45,2.29,2.29,0,0,0-1.11,2.06A5.93,5.93,0,0,0,325,299a13.27,13.27,0,0,0,5.34,5.66" style="fill:#fff"></path><path d="M330.29,304.7a4,4,0,0,1-.87-.5,14.52,14.52,0,0,1-2.17-1.69,11.26,11.26,0,0,1-2.42-3.31,6.43,6.43,0,0,1-.74-2.34,2.52,2.52,0,0,1,1.18-2.38,2.4,2.4,0,0,1,2.61.43,5.19,5.19,0,0,1,1.34,2.08,18.23,18.23,0,0,1,1,4,16.29,16.29,0,0,1,.15,2.75,3.49,3.49,0,0,1-.1,1A33.86,33.86,0,0,0,330,301a18.85,18.85,0,0,0-1.08-3.86,4.88,4.88,0,0,0-1.25-1.92,2,2,0,0,0-2.18-.38,2.14,2.14,0,0,0-1,2,6,6,0,0,0,.68,2.2,11.76,11.76,0,0,0,2.28,3.27C329.08,303.91,330.35,304.63,330.29,304.7Z" style="fill:#263238"></path><path d="M332.11,304.93a18.5,18.5,0,0,0,7.23-2,5.24,5.24,0,0,0,2-1.58,2,2,0,0,0-2-3.3,5.76,5.76,0,0,0-2.25.93,13.31,13.31,0,0,0-5,6" style="fill:#fff"></path><path d="M332.11,304.93a4.67,4.67,0,0,1,.39-.93,14.73,14.73,0,0,1,1.43-2.35,11.22,11.22,0,0,1,3-2.79,6,6,0,0,1,2.24-1,2.49,2.49,0,0,1,2.5.89,2.4,2.4,0,0,1-.13,2.64,5.16,5.16,0,0,1-1.91,1.57,17.52,17.52,0,0,1-3.81,1.48,16,16,0,0,1-2.71.47,4.58,4.58,0,0,1-1,0c0-.08,1.44-.13,3.65-.76a19,19,0,0,0,3.71-1.53,4.83,4.83,0,0,0,1.75-1.46,2,2,0,0,0,.13-2.21,2.15,2.15,0,0,0-2.11-.73,6,6,0,0,0-2.11.93,11.48,11.48,0,0,0-3,2.65C332.75,303.63,332.19,305,332.11,304.93Z" style="fill:#263238"></path><path d="M330.35,304.24c-.6-.07-1.11.48-1.4,1a2,2,0,0,0-.05,1.77,2.27,2.27,0,0,0,1.88,1.33,2.16,2.16,0,0,0,2-1.09,2.07,2.07,0,0,0-.21-2.27,2.22,2.22,0,0,0-2.46-.75" style="fill:#FF725E"></path><path d="M327.71,309.68s-.35-.19-.78-.65a5.36,5.36,0,0,1-1.14-2.18,4.12,4.12,0,0,1,.07-2.47c.24-.61.54-.88.58-.85s-.16.36-.31.93a4.44,4.44,0,0,0,.05,2.28A10.1,10.1,0,0,0,327.71,309.68Z" style="fill:#fff"></path><path d="M329.44,310.52c0,.11-.24.21-.54.11s-.44-.34-.37-.42.28,0,.5,0S329.44,310.41,329.44,310.52Z" style="fill:#fff"></path><path d="M336.07,305.82a3.59,3.59,0,0,1-2.34,4,10.67,10.67,0,0,0,1.54-1.76A11.21,11.21,0,0,0,336.07,305.82Z" style="fill:#fff"></path><path d="M333,301.64a.48.48,0,0,1-.33-.09.45.45,0,0,1-.25-.24c0-.11.2-.24.44-.1S333.06,301.61,333,301.64Z" style="fill:#fff"></path><path d="M329.67,307.38s-.21,0-.41-.24a1.53,1.53,0,0,1-.37-1.06,1.57,1.57,0,0,1,.42-1.05c.21-.21.39-.26.42-.22s-.43.54-.45,1.28S329.74,307.31,329.67,307.38Z" style="fill:#fff"></path><path d="M330.56,307.92a.21.21,0,0,1-.26.14.2.2,0,1,1,.09-.38A.2.2,0,0,1,330.56,307.92Z" style="fill:#fff"></path><path d="M481.61,251.51c-1.57.39-2.28,2.25-2.5,3.85a5.35,5.35,0,0,0,1.59,4.4,6.08,6.08,0,0,0,5.95,1.49,5.74,5.74,0,0,0,3.94-4.64,5.48,5.48,0,0,0-2.73-5.41,5.86,5.86,0,0,0-6.79.51" style="fill:#FF725E"></path><g style="opacity:0.7000000000000001"><path d="M481.61,251.51c-1.57.39-2.28,2.25-2.5,3.85a5.35,5.35,0,0,0,1.59,4.4,6.08,6.08,0,0,0,5.95,1.49,5.74,5.74,0,0,0,3.94-4.64,5.48,5.48,0,0,0-2.73-5.41,5.86,5.86,0,0,0-6.79.51" style="fill:#fff"></path></g><path d="M483.84,255.09a18.56,18.56,0,0,0-3.77-6.49A5.47,5.47,0,0,0,478,247a2,2,0,0,0-2.69,2.77,5.68,5.68,0,0,0,1.47,1.94,13.34,13.34,0,0,0,7,3.34" style="fill:#fff"></path><path d="M483.84,255.09a4.72,4.72,0,0,1-1-.15,14.56,14.56,0,0,1-2.64-.79,11.41,11.41,0,0,1-3.45-2.2,6.18,6.18,0,0,1-1.54-1.92,2.51,2.51,0,0,1,.23-2.64,2.41,2.41,0,0,1,2.59-.54,5,5,0,0,1,2,1.44,17.76,17.76,0,0,1,2.39,3.32,16.9,16.9,0,0,1,1.15,2.5,4.46,4.46,0,0,1,.27,1c-.07,0-.49-1.36-1.66-3.34a19.13,19.13,0,0,0-2.42-3.21,4.85,4.85,0,0,0-1.85-1.33,2.06,2.06,0,0,0-2.17.44,2.12,2.12,0,0,0-.17,2.22,5.88,5.88,0,0,0,1.43,1.81,11.65,11.65,0,0,0,3.31,2.21C482.42,254.8,483.86,255,483.84,255.09Z" style="fill:#263238"></path><path d="M485.61,254.64a18.32,18.32,0,0,0,6-4.51,5.38,5.38,0,0,0,1.31-2.21,2.24,2.24,0,0,0-.73-2.34,2.26,2.26,0,0,0-2.33,0,5.79,5.79,0,0,0-1.76,1.69,13.39,13.39,0,0,0-2.49,7.38" style="fill:#fff"></path><path d="M485.61,254.64a5.16,5.16,0,0,1,0-1,15.27,15.27,0,0,1,.48-2.71,11.29,11.29,0,0,1,1.78-3.69,6.21,6.21,0,0,1,1.72-1.75,2.52,2.52,0,0,1,2.66-.08,2.4,2.4,0,0,1,.84,2.51,5.1,5.1,0,0,1-1.21,2.15,17.78,17.78,0,0,1-3,2.77,15.8,15.8,0,0,1-2.35,1.42,4.15,4.15,0,0,1-.94.39,36.36,36.36,0,0,0,3.12-2,18.85,18.85,0,0,0,2.9-2.77,4.87,4.87,0,0,0,1.11-2,2,2,0,0,0-.69-2.1,2.16,2.16,0,0,0-2.23.08,6.35,6.35,0,0,0-1.63,1.64,11.55,11.55,0,0,0-1.8,3.55C485.74,253.2,485.7,254.65,485.61,254.64Z" style="fill:#263238"></path><path d="M483.72,254.64c-.59.15-.85.85-.94,1.45a2,2,0,0,0,.6,1.66,2.29,2.29,0,0,0,2.24.56,2.2,2.2,0,0,0,1.49-1.75,2.09,2.09,0,0,0-1-2,2.21,2.21,0,0,0-2.56.2" style="fill:#FF725E"></path><path d="M483.24,260.67a2.18,2.18,0,0,1-1-.33,5.38,5.38,0,0,1-1.85-1.62,4,4,0,0,1-.84-2.32c0-.65.18-1,.23-1s0,.39.05,1a4.62,4.62,0,0,0,.87,2.11A10.61,10.61,0,0,0,483.24,260.67Z" style="fill:#fff"></path><path d="M485.16,260.81c0,.1-.15.29-.47.3s-.53-.15-.49-.25.24-.13.48-.14S485.12,260.71,485.16,260.81Z" style="fill:#fff"></path><path d="M489.63,254a3.61,3.61,0,0,1-.74,4.55,11.66,11.66,0,0,0,.8-2.21A11,11,0,0,0,489.63,254Z" style="fill:#fff"></path><path d="M485.2,251.27a.49.49,0,0,1-.34,0,.46.46,0,0,1-.32-.14c-.07-.09.1-.29.37-.25S485.29,251.2,485.2,251.27Z" style="fill:#fff"></path><path d="M484.23,257.81c0,.05-.2.06-.46-.08a1.52,1.52,0,0,1-.74-.85,1.6,1.6,0,0,1,0-1.13c.12-.27.27-.39.31-.36s-.2.66,0,1.35S484.27,257.71,484.23,257.81Z" style="fill:#fff"></path><path d="M485.25,258a.2.2,0,0,1-.18.23.2.2,0,0,1-.24-.16.21.21,0,0,1,.42-.07Z" style="fill:#fff"></path><path d="M246,418.8c-1.57.39-2.28,2.25-2.51,3.85a5.33,5.33,0,0,0,1.6,4.4,6.07,6.07,0,0,0,5.94,1.5A5.77,5.77,0,0,0,255,423.9a5.49,5.49,0,0,0-2.73-5.41,5.83,5.83,0,0,0-6.78.52" style="fill:#FF725E"></path><g style="opacity:0.7000000000000001"><path d="M246,418.8c-1.57.39-2.28,2.25-2.51,3.85a5.33,5.33,0,0,0,1.6,4.4,6.07,6.07,0,0,0,5.94,1.5A5.77,5.77,0,0,0,255,423.9a5.49,5.49,0,0,0-2.73-5.41,5.83,5.83,0,0,0-6.78.52" style="fill:#fff"></path></g><path d="M248.25,422.38a18.37,18.37,0,0,0-3.77-6.48,5.27,5.27,0,0,0-2-1.56,2,2,0,0,0-2.69,2.77,5.68,5.68,0,0,0,1.48,1.94,13.26,13.26,0,0,0,7,3.33" style="fill:#fff"></path><path d="M248.25,422.38a4.3,4.3,0,0,1-1-.14,16.19,16.19,0,0,1-2.64-.8,11.22,11.22,0,0,1-3.45-2.2,6.41,6.41,0,0,1-1.54-1.91,2.53,2.53,0,0,1,.23-2.65,2.42,2.42,0,0,1,2.6-.54,5,5,0,0,1,2,1.45,17.06,17.06,0,0,1,3.54,5.82,4.32,4.32,0,0,1,.27,1,36.75,36.75,0,0,0-1.66-3.34,18.69,18.69,0,0,0-2.42-3.2,4.75,4.75,0,0,0-1.85-1.33,2,2,0,0,0-2.17.43,2.15,2.15,0,0,0-.17,2.23,6,6,0,0,0,1.43,1.81,11.65,11.65,0,0,0,3.31,2.21C246.83,422.09,248.27,422.29,248.25,422.38Z" style="fill:#263238"></path><path d="M250,421.93a18.39,18.39,0,0,0,6-4.5,5.14,5.14,0,0,0,1.31-2.22,2.25,2.25,0,0,0-.73-2.34,2.29,2.29,0,0,0-2.33,0,5.82,5.82,0,0,0-1.76,1.7,13.25,13.25,0,0,0-2.48,7.37" style="fill:#fff"></path><path d="M250,421.93a3.9,3.9,0,0,1,0-1,15.42,15.42,0,0,1,.48-2.71,11.48,11.48,0,0,1,1.78-3.69,6.53,6.53,0,0,1,1.73-1.75,2.5,2.5,0,0,1,2.65-.08,2.41,2.41,0,0,1,.84,2.51,5,5,0,0,1-1.2,2.16,17.35,17.35,0,0,1-3,2.76,17,17,0,0,1-2.35,1.43,4.19,4.19,0,0,1-.93.38c0-.07,1.29-.64,3.12-2a19.4,19.4,0,0,0,2.9-2.78,4.68,4.68,0,0,0,1.1-2,2,2,0,0,0-.68-2.1,2.13,2.13,0,0,0-2.23.09,5.88,5.88,0,0,0-1.63,1.63,11.71,11.71,0,0,0-1.81,3.55A36.32,36.32,0,0,0,250,421.93Z" style="fill:#263238"></path><path d="M248.14,421.93c-.59.15-.86.85-.94,1.45a2,2,0,0,0,.59,1.66,2.29,2.29,0,0,0,2.24.56,2.15,2.15,0,0,0,1.49-1.75,2.06,2.06,0,0,0-1-2,2.2,2.2,0,0,0-2.56.19" style="fill:#FF725E"></path><path d="M247.65,428a2.22,2.22,0,0,1-1-.33,5.27,5.27,0,0,1-1.85-1.62,4,4,0,0,1-.83-2.32c0-.65.18-1,.22-1s0,.39.06,1a4.37,4.37,0,0,0,.87,2.11A10.46,10.46,0,0,0,247.65,428Z" style="fill:#fff"></path><path d="M249.57,428.11c.05.09-.15.28-.46.3s-.53-.16-.5-.26.25-.13.48-.14S249.53,428,249.57,428.11Z" style="fill:#fff"></path><path d="M254,421.32a3,3,0,0,1,.45,2.41,2.91,2.91,0,0,1-1.19,2.14,6.3,6.3,0,0,0,.74-4.55Z" style="fill:#fff"></path><path d="M249.61,418.56a.43.43,0,0,1-.34,0,.46.46,0,0,1-.32-.14c-.07-.09.1-.29.38-.25S249.7,418.49,249.61,418.56Z" style="fill:#fff"></path><path d="M248.64,425.11c0,.05-.2.05-.46-.08a1.58,1.58,0,0,1-.74-.86,1.54,1.54,0,0,1,0-1.13c.11-.27.26-.38.3-.36s-.2.67.05,1.36S248.68,425,248.64,425.11Z" style="fill:#fff"></path><path d="M249.67,425.28a.22.22,0,0,1-.19.23.2.2,0,0,1-.24-.17.21.21,0,0,1,.18-.23A.22.22,0,0,1,249.67,425.28Z" style="fill:#fff"></path></g></svg>